<svg width="36" height="36" viewBox="0 0 36 36" fill="none" xmlns="http://www.w3.org/2000/svg">
<g clip-path="url(#clip0_9592_24081)">
<path d="M18 36C27.9411 36 36 27.9411 36 18C36 8.05888 27.9411 0 18 0C8.05888 0 0 8.05888 0 18C0 27.9411 8.05888 36 18 36Z" fill="url(#paint0_linear_9592_24081)"/>
<path d="M17.9987 10.0087C14.3113 10.0087 10.8098 9.68067 9.47238 13.1131C8.91993 14.5308 9.00016 16.3719 9.00016 19.0082C9.00016 21.3216 8.92602 23.4958 9.47238 24.9023C10.8068 28.3368 14.3367 28.0078 17.9967 28.0078C21.5276 28.0078 25.1683 28.3754 26.522 24.9023C27.0754 23.4704 26.9942 21.6567 26.9942 19.0082C26.9942 15.4925 27.1881 13.2228 25.4831 11.5188C23.7567 9.79238 21.422 10.0087 17.9946 10.0087H17.9987ZM17.1924 11.6305C24.8839 11.6183 25.8629 10.7632 25.3226 22.6418C25.1307 26.843 21.9318 26.3819 17.9997 26.3819C10.8301 26.3819 10.624 26.1768 10.624 19.0042C10.624 11.7483 11.1927 11.6345 17.1924 11.6284V11.6305ZM22.8021 13.1243C22.206 13.1243 21.7226 13.6077 21.7226 14.2038C21.7226 14.7999 22.206 15.2833 22.8021 15.2833C23.3982 15.2833 23.8816 14.7999 23.8816 14.2038C23.8816 13.6077 23.3982 13.1243 22.8021 13.1243V13.1243ZM17.9987 14.3866C15.4467 14.3866 13.3781 16.4562 13.3781 19.0082C13.3781 21.5602 15.4467 23.6289 17.9987 23.6289C20.5507 23.6289 22.6183 21.5602 22.6183 19.0082C22.6183 16.4562 20.5507 14.3866 17.9987 14.3866V14.3866ZM17.9987 16.0084C21.9643 16.0084 21.9694 22.0081 17.9987 22.0081C14.0341 22.0081 14.028 16.0084 17.9987 16.0084Z" fill="white"/>
</g>
<defs>
<linearGradient id="paint0_linear_9592_24081" x1="2.4171" y1="33.6546" x2="35.7736" y2="4.77931" gradientUnits="userSpaceOnUse">
<stop stop-color="#FFDD55"/>
<stop offset="0.5" stop-color="#FF543E"/>
<stop offset="1" stop-color="#C837AB"/>
</linearGradient>
<clipPath id="clip0_9592_24081">
<rect width="36" height="36" fill="white"/>
</clipPath>
</defs>
</svg>
