<svg width="156" height="30" viewBox="0 0 156 30" fill="none" xmlns="http://www.w3.org/2000/svg">
<path d="M58.9267 24.6622C57.2666 24.6622 55.8437 24.3697 54.658 23.7847C53.488 23.1997 52.5868 22.2907 51.9544 21.0575C51.3378 19.8085 51.0295 18.2037 51.0295 16.2433C51.0295 13.3817 51.7252 11.2631 53.1165 9.88762C54.5078 8.51214 56.4445 7.82439 58.9267 7.82439C60.2706 7.82439 61.48 8.05364 62.5551 8.51214C63.646 8.97063 64.5077 9.66627 65.1401 10.5991C65.7883 11.5161 66.1124 12.686 66.1124 14.1089L62.9583 14.1089C62.9583 13.3184 62.7844 12.6544 62.4365 12.1168C62.1045 11.5635 61.6381 11.1445 61.0374 10.8599C60.4366 10.5754 59.7488 10.4331 58.9741 10.4331C57.899 10.4331 57.0058 10.6465 56.2943 11.0734C55.5829 11.4844 55.0532 12.101 54.7054 12.9232C54.3734 13.7453 54.2074 14.765 54.2074 15.9824V16.5042C54.2074 17.7373 54.3734 18.765 54.7054 19.5871C55.0532 20.4093 55.575 21.0259 56.2706 21.4369C56.9821 21.848 57.8832 22.0535 58.9741 22.0535C59.7963 22.0535 60.5156 21.9191 61.1322 21.6504C61.7488 21.3658 62.2231 20.9547 62.5551 20.4172C62.9029 19.8638 63.0769 19.1919 63.0769 18.4014L66.1124 18.4014C66.1124 19.8243 65.7962 21.0021 65.1638 21.9349C64.5314 22.8519 63.6697 23.5397 62.5788 23.9982C61.5037 24.4408 60.2864 24.6622 58.9267 24.6622Z" fill="white"/>
<path d="M74.1448 24.6622C72.7851 24.6622 71.6468 24.4329 70.7298 23.9744C69.8128 23.5001 69.1251 22.7808 68.6666 21.8164C68.2081 20.8519 67.9789 19.6267 67.9789 18.1405C67.9789 16.6385 68.2081 15.4133 68.6666 14.4646C69.1251 13.5002 69.8128 12.7888 70.7298 12.3303C71.6468 11.856 72.7851 11.6188 74.1448 11.6188C75.5203 11.6188 76.6586 11.856 77.5598 12.3303C78.4768 12.7888 79.1645 13.5002 79.623 14.4646C80.0815 15.4133 80.3108 16.6385 80.3108 18.1405C80.3108 19.6267 80.0815 20.8519 79.623 21.8164C79.1645 22.7808 78.4768 23.5001 77.5598 23.9744C76.6586 24.4329 75.5203 24.6622 74.1448 24.6622ZM74.1448 22.2907C74.9037 22.2907 75.5124 22.1484 75.9709 21.8638C76.4452 21.5634 76.7851 21.1207 76.9906 20.5357C77.212 19.935 77.3226 19.1919 77.3226 18.3065V17.9745C77.3226 17.0891 77.212 16.354 76.9906 15.769C76.7851 15.1682 76.4452 14.7255 75.9709 14.4409C75.5124 14.1405 74.9037 13.9903 74.1448 13.9903C73.3859 13.9903 72.7693 14.1405 72.295 14.4409C71.8365 14.7255 71.4966 15.1682 71.2753 15.769C71.0697 16.354 70.967 17.0891 70.967 17.9745V18.3065C70.967 19.1919 71.0697 19.935 71.2753 20.5357C71.4966 21.1207 71.8365 21.5634 72.295 21.8638C72.7693 22.1484 73.3859 22.2907 74.1448 22.2907Z" fill="white"/>
<path d="M83.3619 24.3776L83.3619 14.2749L81.5595 14.2749L81.5595 11.9034L83.3619 11.9034V10.3145C83.3619 9.76114 83.4488 9.2394 83.6227 8.74929C83.8125 8.24336 84.1366 7.8323 84.5951 7.5161C85.0536 7.19989 85.6939 7.04179 86.516 7.04179C86.7531 7.04179 86.9903 7.0576 87.2274 7.08922C87.4804 7.12084 87.7176 7.16827 87.9389 7.23151C88.1602 7.27895 88.35 7.33428 88.5081 7.39752L88.5081 9.41331L87.3223 9.41331C86.9745 9.41331 86.7057 9.50817 86.516 9.6979C86.3421 9.87181 86.2551 10.1327 86.2551 10.4805V11.9034L90.0496 11.9034V10.3145C90.0496 9.76114 90.1444 9.2394 90.3341 8.74929C90.5239 8.24336 90.848 7.8323 91.3065 7.5161C91.765 7.19989 92.4053 7.04179 93.2274 7.04179C93.4487 7.04179 93.678 7.0576 93.9151 7.08922C94.1681 7.12084 94.4052 7.16827 94.6266 7.23151C94.8479 7.27895 95.0377 7.33428 95.1958 7.39752L95.1958 9.41331L94.01 9.41331C93.6622 9.41331 93.3934 9.50817 93.2037 9.6979C93.0298 9.87181 92.9428 10.1327 92.9428 10.4805V11.9034L95.1958 11.9034L95.1958 14.2749L92.9428 14.2749L92.9428 24.3776L90.0496 24.3776L90.0496 14.2749L86.2551 14.2749L86.2551 24.3776L83.3619 24.3776Z" fill="white"/>
<path d="M101.978 24.6622C100.65 24.6622 99.5432 24.4329 98.6578 23.9744C97.7724 23.5001 97.1084 22.7808 96.6657 21.8164C96.223 20.8519 96.0017 19.6267 96.0017 18.1405C96.0017 16.6385 96.223 15.4133 96.6657 14.4646C97.1084 13.5002 97.7724 12.7888 98.6578 12.3303C99.5432 11.856 100.65 11.6188 101.978 11.6188C103.179 11.6188 104.183 11.8481 104.99 12.3066C105.812 12.7492 106.428 13.437 106.84 14.3698C107.251 15.3026 107.456 16.5121 107.456 17.9982V18.852L98.9661 18.852C98.9977 19.6267 99.1163 20.2828 99.3218 20.8203C99.5274 21.3421 99.8436 21.7373 100.27 22.0061C100.713 22.259 101.29 22.3855 102.002 22.3855C102.365 22.3855 102.705 22.3381 103.021 22.2432C103.338 22.1484 103.614 22.0061 103.851 21.8164C104.089 21.6108 104.27 21.3579 104.397 21.0575C104.539 20.7571 104.61 20.4093 104.61 20.014L107.456 20.014C107.456 20.8045 107.314 21.4923 107.029 22.0772C106.76 22.6622 106.373 23.1444 105.867 23.5239C105.377 23.9033 104.8 24.1879 104.136 24.3776C103.472 24.5673 102.753 24.6622 101.978 24.6622ZM99.0135 16.8125L104.444 16.8125C104.444 16.2907 104.381 15.848 104.255 15.4844C104.144 15.1208 103.978 14.8204 103.757 14.5832C103.551 14.3461 103.298 14.1801 102.998 14.0852C102.697 13.9745 102.357 13.9192 101.978 13.9192C101.361 13.9192 100.84 14.022 100.413 14.2275C100.002 14.433 99.6855 14.7492 99.4641 15.1761C99.2428 15.603 99.0926 16.1484 99.0135 16.8125Z" fill="white"/>
<path d="M115.271 24.6622C113.943 24.6622 112.837 24.4329 111.951 23.9744C111.066 23.5001 110.402 22.7808 109.959 21.8164C109.517 20.8519 109.295 19.6267 109.295 18.1405C109.295 16.6385 109.517 15.4133 109.959 14.4646C110.402 13.5002 111.066 12.7888 111.951 12.3303C112.837 11.856 113.943 11.6188 115.271 11.6188C116.473 11.6188 117.477 11.8481 118.283 12.3066C119.105 12.7492 119.722 13.437 120.133 14.3698C120.544 15.3026 120.75 16.5121 120.75 17.9982L120.75 18.852L112.26 18.852C112.291 19.6267 112.41 20.2828 112.615 20.8203C112.821 21.3421 113.137 21.7373 113.564 22.0061C114.007 22.259 114.584 22.3855 115.295 22.3855C115.659 22.3855 115.999 22.3381 116.315 22.2432C116.631 22.1484 116.908 22.0061 117.145 21.8164C117.382 21.6108 117.564 21.3579 117.69 21.0575C117.833 20.7571 117.904 20.4093 117.904 20.014L120.75 20.014C120.75 20.8045 120.607 21.4923 120.323 22.0772C120.054 22.6622 119.667 23.1444 119.161 23.5239C118.671 23.9033 118.094 24.1879 117.429 24.3776C116.765 24.5673 116.046 24.6622 115.271 24.6622ZM112.307 16.8125L117.738 16.8125C117.738 16.2907 117.675 15.848 117.548 15.4844C117.437 15.1208 117.271 14.8204 117.05 14.5832C116.845 14.3461 116.592 14.1801 116.291 14.0852C115.991 13.9745 115.651 13.9192 115.271 13.9192C114.655 13.9192 114.133 14.022 113.706 14.2275C113.295 14.433 112.979 14.7492 112.758 15.1761C112.536 15.603 112.386 16.1484 112.307 16.8125Z" fill="white"/>
<path d="M128.565 24.6622C127.237 24.6622 126.13 24.4329 125.245 23.9744C124.359 23.5001 123.695 22.7808 123.253 21.8164C122.81 20.8519 122.589 19.6267 122.589 18.1405C122.589 16.6385 122.81 15.4133 123.253 14.4646C123.695 13.5002 124.359 12.7888 125.245 12.3303C126.13 11.856 127.237 11.6188 128.565 11.6188C129.766 11.6188 130.77 11.8481 131.577 12.3066C132.399 12.7492 133.015 13.437 133.426 14.3698C133.838 15.3026 134.043 16.5121 134.043 17.9982L134.043 18.852L125.553 18.852C125.585 19.6267 125.703 20.2828 125.909 20.8203C126.114 21.3421 126.431 21.7373 126.857 22.0061C127.3 22.259 127.877 22.3855 128.589 22.3855C128.952 22.3855 129.292 22.3381 129.608 22.2432C129.925 22.1484 130.201 22.0061 130.438 21.8164C130.676 21.6108 130.857 21.3579 130.984 21.0575C131.126 20.7571 131.197 20.4093 131.197 20.014L134.043 20.014C134.043 20.8045 133.901 21.4923 133.616 22.0772C133.347 22.6622 132.96 23.1444 132.454 23.5239C131.964 23.9033 131.387 24.1879 130.723 24.3776C130.059 24.5673 129.34 24.6622 128.565 24.6622ZM125.6 16.8125L131.031 16.8125C131.031 16.2907 130.968 15.848 130.842 15.4844C130.731 15.1208 130.565 14.8204 130.344 14.5832C130.138 14.3461 129.885 14.1801 129.585 14.0852C129.284 13.9745 128.944 13.9192 128.565 13.9192C127.948 13.9192 127.427 14.022 127 14.2275C126.589 14.433 126.272 14.7492 126.051 15.1761C125.83 15.603 125.68 16.1484 125.6 16.8125Z" fill="white"/>
<path d="M8.9551 14.129C12.5309 14.129 15.4297 11.2302 15.4297 7.65432C15.4297 4.07848 12.5309 1.17969 8.9551 1.17969C5.37926 1.17969 2.48047 4.07848 2.48047 7.65432C2.48047 11.2302 5.37926 14.129 8.9551 14.129Z" fill="#FF2C91"/>
<path d="M25.6934 14.129C29.2692 14.129 32.168 11.2302 32.168 7.65432C32.168 4.07848 29.2692 1.17969 25.6934 1.17969C22.1175 1.17969 19.2188 4.07848 19.2188 7.65432C19.2188 11.2302 22.1175 14.129 25.6934 14.129Z" fill="#FF2C91"/>
<path d="M1.40698 10.0322L2.37316 9.02246C2.37316 9.02246 7.39962 20.5671 15.1346 9.80301L18.5774 9.6653C18.5774 9.6653 21.4985 14.4615 24.8118 14.3932C28.1252 14.3249 30.8403 12.3066 31.8891 9.25216L33.2662 9.71102C33.2662 9.71102 32.6922 23.643 25.6464 26.2821C18.6 28.9217 12.0587 31.2854 4.39311 22.5182C4.39311 22.5182 -1.1517 15.3203 1.40698 10.0322Z" fill="white"/>
<path d="M34.4923 9.82172C34.3094 9.82172 34.1293 9.83053 33.9519 9.84816C33.6379 7.89486 32.994 6.05173 32.0785 4.37937C31.8036 3.87645 31.5028 3.38895 31.1806 2.91798C31.1778 2.91522 31.1762 2.91247 31.1751 2.91027C29.8674 1.24616 27.8816 0.140616 25.6336 0.0128198C25.6248 0.0117181 25.6154 0.0117188 25.6066 0.0117188C26.9672 0.937138 28.1691 2.07684 29.1645 3.38344C29.1656 3.38454 29.1656 3.38509 29.1656 3.38509C29.2124 3.42806 29.2581 3.47213 29.3017 3.51785C29.3253 3.54043 29.349 3.56522 29.3722 3.59001C29.3837 3.60047 29.3942 3.61094 29.403 3.62251C29.4294 3.64895 29.4542 3.67594 29.4785 3.70348C29.5446 3.77564 29.6085 3.84946 29.6691 3.92492C29.6917 3.95191 29.7137 3.97946 29.7352 4.00645C29.8415 4.1392 29.9406 4.27691 30.0337 4.41958C30.0646 4.4642 30.0932 4.50992 30.1224 4.55674C30.1241 4.56005 30.1268 4.56445 30.1296 4.56886C30.1593 4.61733 30.1885 4.66526 30.2166 4.71483C30.2403 4.75615 30.264 4.79856 30.2871 4.84153C30.3036 4.87072 30.3185 4.90047 30.3339 4.93021C30.3516 4.96161 30.3675 4.99356 30.383 5.02606C30.4006 5.06132 30.4182 5.09712 30.4347 5.13348C30.4672 5.20178 30.4981 5.27119 30.5278 5.3417C30.5278 5.3428 30.5289 5.3428 30.5278 5.34335C30.5438 5.3775 30.5576 5.41275 30.5708 5.44801C30.5796 5.46839 30.5873 5.48932 30.5956 5.51025C30.6077 5.54 30.6193 5.57085 30.6297 5.60169C30.6534 5.66394 30.6755 5.72674 30.6958 5.78953C30.7091 5.82974 30.7223 5.87051 30.7344 5.91182L30.7476 5.95644C30.7476 5.95644 30.7487 5.95754 30.7487 5.95809C31.413 7.32639 31.8769 8.81037 32.1038 10.3715C32.1187 10.4706 32.1308 10.5709 32.1435 10.6711C32.1479 10.708 32.1523 10.7449 32.1567 10.7818C32.1644 10.8452 32.1716 10.9091 32.1776 10.9724C32.1881 11.0699 32.198 11.1674 32.2057 11.266C32.2112 11.3277 32.2162 11.3889 32.2206 11.4517C32.2283 11.5563 32.2349 11.6615 32.2399 11.7673C32.2432 11.8229 32.247 11.8769 32.2487 11.9315C32.2558 12.0912 32.2602 12.2515 32.2619 12.4123C32.263 12.4658 32.263 12.5203 32.263 12.5743C32.263 14.2345 31.9969 15.8325 31.5039 17.3275C31.2897 17.9797 31.0313 18.6116 30.7344 19.2213C28.2694 24.2726 23.0837 27.7523 17.0856 27.7523C8.70225 27.7523 1.90758 20.9571 1.90758 12.5743C1.90758 11.9111 1.94999 11.2572 2.03317 10.6166C2.25351 8.90126 2.76084 7.27571 3.50503 5.78843C3.50613 5.78678 3.50613 5.78568 3.50668 5.78513C3.50943 5.77521 3.51274 5.76585 3.51549 5.75703C3.53037 5.71241 3.54634 5.66835 3.56232 5.62428C3.57829 5.58021 3.59481 5.53614 3.61134 5.49318C3.62897 5.44911 3.64549 5.40614 3.66422 5.36318C3.67909 5.32792 3.69397 5.29212 3.70994 5.25687C3.72481 5.22271 3.74079 5.18746 3.75731 5.1522C3.77329 5.11805 3.78981 5.0828 3.80634 5.04865C3.82286 5.01449 3.84049 4.98034 3.85812 4.94564C3.89337 4.87733 3.92918 4.81013 3.96719 4.74458C3.98206 4.71759 3.99803 4.68894 4.01456 4.66195C4.07625 4.55729 4.14015 4.45539 4.20791 4.35623C4.23269 4.31823 4.25803 4.28132 4.28447 4.24551C4.31091 4.20751 4.3379 4.1706 4.366 4.13369C4.39409 4.09568 4.42218 4.05878 4.45138 4.02297C4.47947 3.98607 4.50867 3.95026 4.53841 3.91501C4.65905 3.76848 4.78629 3.62857 4.9207 3.49471C4.9207 3.49361 4.9218 3.49361 4.92235 3.49306C5.93315 2.14073 7.16429 0.96413 8.56123 0.0139218C8.53039 0.0150235 8.49954 0.0172272 8.46869 0.0194305C6.02845 0.187989 3.90549 1.51057 2.64185 3.44459C2.58457 3.53437 2.52838 3.62361 2.47329 3.71505C2.45402 3.7459 2.43639 3.77674 2.41766 3.80759C0.882454 6.37067 0 9.36947 0 12.5743C0 22.0097 7.64848 29.6582 17.085 29.6582C23.748 29.6582 29.5192 25.8442 32.3357 20.2812C32.9973 20.5676 33.7266 20.7257 34.4928 20.7257C37.5032 20.7257 39.9445 18.2844 39.9445 15.274C39.9445 12.2636 37.5032 9.82227 34.4928 9.82227L34.4923 9.82172ZM34.4923 18.9002C33.9877 18.9002 33.5074 18.7972 33.0705 18.611C33.7795 16.7337 34.1684 14.6995 34.1684 12.5737C34.1684 12.268 34.1607 11.9645 34.1447 11.6626C34.2587 11.6511 34.3749 11.6461 34.4928 11.6461C36.4962 11.6461 38.1201 13.27 38.1201 15.2734C38.1201 17.2769 36.4962 18.9002 34.4928 18.9002H34.4923Z" fill="#FF2C91"/>
<path d="M26.1159 13.3091C25.8168 13.3571 25.51 13.3818 25.1977 13.3818C23.5991 13.3818 22.1526 12.7341 21.106 11.6869C20.1828 10.7653 19.5697 9.53254 19.4375 8.15874H19.4612C19.448 7.972 19.4386 7.78526 19.4386 7.59522C19.4386 7.19586 19.4695 6.80366 19.5289 6.42082C19.7614 5.29379 20.3222 4.28685 21.106 3.50354C22.1526 2.45639 23.5991 1.80859 25.1977 1.80859C25.2583 1.80859 25.3189 1.8097 25.3784 1.81135C25.4169 1.813 25.4566 1.8141 25.4951 1.81631C25.7034 1.82732 25.9094 1.84825 26.1115 1.88075C26.1126 1.88075 26.1143 1.8813 26.1154 1.8813C24.8848 2.07741 23.7837 2.6613 22.942 3.50354C21.8948 4.55015 21.2459 5.99667 21.2459 7.59522C21.2459 9.19377 21.8948 10.6408 22.942 11.6869C23.7842 12.5291 24.8848 13.1136 26.1159 13.3091Z" fill="#FF72B6"/>
<path d="M9.91898 13.3091C9.61987 13.3571 9.31305 13.3818 9.00072 13.3818C6.20408 13.3818 3.87125 11.3983 3.33142 8.76136C3.27248 8.38073 3.24219 7.99183 3.24219 7.59522C3.24219 7.19861 3.27138 6.82624 3.32757 6.45387C3.32757 6.45222 3.32757 6.45112 3.32812 6.44946C3.3474 6.35307 3.36943 6.25777 3.39367 6.16302C3.40524 6.1173 3.41736 6.07158 3.43058 6.02586C3.4427 5.98125 3.45702 5.93552 3.47024 5.89036C3.4807 5.8562 3.49227 5.82205 3.50274 5.78845C3.50329 5.7868 3.50329 5.7857 3.50439 5.78514C3.50714 5.77523 3.51045 5.76586 3.5132 5.75705C3.52808 5.71188 3.54405 5.66837 3.55947 5.6243C3.57545 5.58023 3.59197 5.53616 3.60905 5.4932C3.62668 5.44913 3.6432 5.40616 3.66138 5.3632C3.67681 5.32794 3.69168 5.29214 3.7071 5.25688C3.72252 5.22273 3.73795 5.18748 3.75502 5.15222C3.77045 5.11807 3.78752 5.08282 3.80405 5.04866C3.82058 5.01451 3.8382 4.97981 3.85583 4.94566C3.89108 4.87735 3.92689 4.8107 3.9649 4.7446C3.97977 4.71706 3.99574 4.68896 4.01227 4.66197C4.07396 4.55731 4.13786 4.4554 4.20562 4.35625C4.2304 4.31824 4.25574 4.28134 4.28218 4.24553C4.30862 4.20752 4.33562 4.17062 4.36371 4.13371C4.3918 4.09625 4.41989 4.05935 4.44909 4.02299C4.47718 3.98608 4.50638 3.95028 4.53612 3.91503C4.65621 3.7685 4.784 3.62859 4.91841 3.49473C4.91841 3.49473 4.91896 3.49473 4.92006 3.49308C4.98341 3.42973 5.04841 3.36859 5.11506 3.30854C5.1426 3.28321 5.1707 3.25842 5.19879 3.23418C5.22413 3.21105 5.25057 3.18846 5.27756 3.16643C5.30951 3.13888 5.34201 3.11244 5.37451 3.0871C5.53591 2.95545 5.70557 2.83317 5.88239 2.71969C5.92535 2.6927 5.96832 2.66626 6.01129 2.63982C6.05535 2.61338 6.09942 2.58804 6.14349 2.5627C6.18811 2.53736 6.23273 2.51257 6.2779 2.48889C6.32086 2.4652 6.36493 2.44317 6.40789 2.42113C6.41285 2.41838 6.41836 2.41507 6.42442 2.41232C6.46573 2.39194 6.50594 2.37266 6.54726 2.35338C6.55166 2.35063 6.55607 2.34897 6.56158 2.34732C6.59683 2.33079 6.63209 2.31372 6.66789 2.29885C6.72573 2.2724 6.78467 2.24817 6.84361 2.22503C6.87501 2.21181 6.90696 2.19859 6.93946 2.18758C7.00115 2.16389 7.0634 2.14075 7.12565 2.11982C7.162 2.1066 7.19891 2.09503 7.23471 2.08347C7.29696 2.06364 7.36031 2.04435 7.42365 2.02673C7.47378 2.01241 7.52391 1.99864 7.57458 1.98597C7.617 1.97495 7.65886 1.96503 7.70128 1.95512C7.73708 1.94686 7.77344 1.93859 7.81035 1.93143C7.82191 1.92923 7.83293 1.92647 7.8445 1.92482C7.87535 1.91766 7.90509 1.91215 7.93594 1.90719C8.00534 1.89397 8.07475 1.8813 8.14416 1.87194C8.17611 1.86643 8.20861 1.86203 8.24111 1.85872C8.28407 1.85266 8.32704 1.84715 8.37111 1.84275C8.40967 1.83834 8.44822 1.83503 8.48678 1.83173C8.5 1.82953 8.51267 1.82897 8.52534 1.82787C8.55178 1.82512 8.57822 1.82347 8.60577 1.82292C8.63827 1.82016 8.67077 1.81741 8.70327 1.81631C8.74788 1.8141 8.7925 1.8119 8.83767 1.81135C8.89221 1.8097 8.94674 1.80859 9.00072 1.80859C9.31305 1.80859 9.61932 1.83338 9.91788 1.8813C9.8694 1.88902 9.82038 1.89783 9.77191 1.90719C9.74106 1.91215 9.71131 1.91766 9.68047 1.92482C9.66945 1.92647 9.65788 1.92923 9.64631 1.93143C9.60941 1.93859 9.5736 1.94686 9.53724 1.95512C9.49538 1.96503 9.45297 1.97495 9.4111 1.98597C9.35987 1.99864 9.30975 2.01241 9.25962 2.02673C9.19627 2.04435 9.13348 2.06364 9.07068 2.08347C9.03487 2.09503 8.99797 2.1066 8.96161 2.11982C8.89937 2.14075 8.83712 2.16389 8.77543 2.18758C8.74293 2.19859 8.71153 2.21181 8.67958 2.22503C8.62064 2.24817 8.56225 2.2724 8.50386 2.29885C8.46806 2.31372 8.4328 2.33079 8.39755 2.34732C8.39259 2.34897 8.38818 2.35063 8.38378 2.35338C8.34246 2.37266 8.3017 2.39194 8.26039 2.41232C8.25433 2.41507 8.24937 2.41838 8.24386 2.42113C8.2009 2.44317 8.15683 2.4652 8.11386 2.48889C8.06924 2.51257 8.02407 2.53736 7.97945 2.5627C7.93539 2.58804 7.89132 2.61338 7.8478 2.63982C7.80429 2.66626 7.76132 2.6927 7.71836 2.71969C7.54153 2.83317 7.37242 2.95545 7.21048 3.0871C7.17798 3.11244 7.14548 3.13888 7.11408 3.16643C7.08654 3.18846 7.0601 3.21105 7.03476 3.23418C7.00666 3.25842 6.97857 3.28321 6.95103 3.30854C6.88438 3.36859 6.81938 3.42973 6.75603 3.49308C6.75603 3.49418 6.75438 3.49418 6.75438 3.49473C6.61997 3.62859 6.49272 3.7685 6.37209 3.91503C6.34234 3.95028 6.31315 3.98608 6.28506 4.02299C6.25641 4.05935 6.22832 4.09625 6.19967 4.13371C6.17158 4.17062 6.14459 4.20752 6.11815 4.24553C6.09171 4.28134 6.06637 4.31824 6.04158 4.35625C5.97383 4.4554 5.90993 4.55731 5.84824 4.66197C5.83171 4.68896 5.81574 4.71706 5.80086 4.7446C5.76341 4.8107 5.72705 4.87735 5.6918 4.94566C5.67417 4.97981 5.65709 5.01451 5.64002 5.04866C5.62349 5.08282 5.60697 5.11807 5.59099 5.15222C5.57447 5.18748 5.55849 5.22273 5.54362 5.25688C5.52764 5.29214 5.51277 5.32794 5.4979 5.3632C5.47917 5.40616 5.46265 5.44913 5.44502 5.4932C5.42849 5.53616 5.41142 5.58023 5.39599 5.6243C5.38002 5.66837 5.36404 5.71188 5.34917 5.75705C5.34642 5.76586 5.34311 5.77523 5.34036 5.78514C5.33981 5.7857 5.33981 5.7868 5.3387 5.78845C5.32824 5.82205 5.31667 5.8562 5.3062 5.89036C5.29298 5.93552 5.27921 5.98125 5.26654 6.02586C5.25332 6.07158 5.24121 6.1173 5.22964 6.16302C5.14481 6.49518 5.08807 6.83946 5.06438 7.19255C5.05832 7.27298 5.05502 7.3534 5.05337 7.43437C5.05116 7.48781 5.05061 7.54179 5.05061 7.59522C5.05061 10.4789 7.15925 12.8696 9.91898 13.3091Z" fill="#FF72B6"/>
<path d="M32.0779 4.37922C31.8338 3.85702 31.5314 3.36677 31.18 2.91783C31.1772 2.91507 31.1756 2.91232 31.1745 2.91011C29.8668 1.24601 27.881 0.140465 25.633 0.0126692C25.6242 0.0115675 25.6148 0.0115681 25.606 0.0115681C25.4705 0.00385629 25.3333 0 25.1956 0C21.0015 0 17.6005 3.39982 17.6005 7.5945C17.6005 7.78454 17.6105 7.97128 17.6231 8.15802H16.5749C16.5881 7.97183 16.5975 7.78454 16.5975 7.5945C16.5975 3.40037 13.1965 0 9.0013 0C8.85257 0 8.70605 0.00440706 8.55953 0.0132206C8.52868 0.0143223 8.49783 0.0165252 8.46698 0.0187285C6.02674 0.187287 3.90378 1.50987 2.64014 3.44388C2.58285 3.53367 2.52667 3.62291 2.47158 3.71435C2.4523 3.7452 2.43468 3.77604 2.41595 3.80689C1.77366 4.9218 1.40625 6.21463 1.40625 7.5945C1.40625 8.62899 1.61337 9.615 1.98684 10.5129C2.00116 10.547 2.01604 10.5812 2.03091 10.6159C3.1987 13.3084 5.87966 15.1896 9.0013 15.1896C12.3405 15.1896 15.1746 13.0346 16.192 10.0392H18.0032C19.0228 13.0346 21.8558 15.1896 25.195 15.1896C28.2952 15.1896 30.9607 13.3327 32.1418 10.671C32.1418 10.6699 32.1429 10.6699 32.1429 10.6693V10.6682C32.5593 9.72903 32.7906 8.68903 32.7906 7.5945C32.7906 6.44489 32.5351 5.35532 32.0779 4.37922ZM9.00185 13.3811C5.80585 13.3811 3.21522 10.7905 3.21522 7.5945C3.21522 7.54107 3.21633 7.48709 3.21798 7.43365C3.21963 7.35268 3.22349 7.27171 3.22955 7.19183C3.25323 6.83874 3.30942 6.49391 3.3948 6.16175C3.40637 6.11603 3.41849 6.07031 3.43171 6.02459C3.44383 5.97997 3.45815 5.93425 3.47137 5.88908C3.48183 5.85493 3.4934 5.82078 3.50387 5.78718C3.50497 5.78553 3.50497 5.78442 3.50552 5.78387C3.50828 5.77396 3.51158 5.76459 3.51433 5.75578C3.52921 5.71116 3.54518 5.66709 3.56116 5.62303C3.57713 5.57896 3.59366 5.53489 3.61018 5.49193C3.62781 5.44786 3.64433 5.40489 3.66306 5.36193C3.67794 5.32667 3.69281 5.29087 3.70878 5.25561C3.72365 5.22146 3.73963 5.18621 3.75616 5.15095C3.77213 5.1168 3.78865 5.08155 3.80518 5.04739C3.82171 5.01324 3.83933 4.97909 3.85696 4.94439C3.89221 4.87608 3.92802 4.80888 3.96603 4.74333C3.9809 4.71634 3.99688 4.68769 4.0134 4.6607C4.0751 4.55604 4.13899 4.45413 4.20675 4.35498C4.23153 4.31697 4.25687 4.28007 4.28331 4.24426C4.30976 4.20625 4.33675 4.16935 4.36484 4.13244C4.39293 4.09443 4.42103 4.05752 4.45022 4.02172C4.47831 3.98481 4.50751 3.94901 4.53725 3.91375C4.65789 3.76723 4.78513 3.62731 4.91954 3.49346C4.91954 3.49236 4.92064 3.49236 4.92119 3.49181C4.98454 3.42846 5.04954 3.36676 5.11619 3.30727C5.14318 3.28193 5.17183 3.25715 5.19992 3.23236C5.22526 3.20977 5.2517 3.18664 5.27924 3.1646C5.31064 3.13761 5.34314 3.11117 5.37564 3.08528C5.53759 2.95363 5.7067 2.83134 5.88352 2.71787C5.92648 2.69088 5.96945 2.66444 6.01297 2.638C6.05704 2.61156 6.1011 2.58622 6.14462 2.56088C6.18924 2.53554 6.23441 2.51075 6.27903 2.48707C6.32199 2.46338 6.36606 2.44135 6.40903 2.41931C6.41453 2.41656 6.41949 2.41325 6.42555 2.4105C6.46686 2.39012 6.50708 2.37084 6.54839 2.35156C6.5528 2.3488 6.5572 2.34715 6.56271 2.3455C6.59797 2.32897 6.63322 2.3119 6.66902 2.29702C6.72686 2.27058 6.7858 2.2458 6.84474 2.22321C6.87614 2.20999 6.90809 2.19677 6.94059 2.1852C7.00229 2.16152 7.06453 2.13838 7.12678 2.11745C7.16258 2.10423 7.19949 2.09266 7.23584 2.08164C7.29809 2.06126 7.36144 2.04198 7.42478 2.02436C7.47491 2.01003 7.52504 1.99626 7.57572 1.98414C7.61813 1.97258 7.65999 1.96321 7.70241 1.9533C7.73821 1.94448 7.77457 1.93677 7.81148 1.92961C7.82304 1.92686 7.83406 1.9241 7.84563 1.92245C7.87648 1.91529 7.90622 1.91033 7.93707 1.90482C8.00648 1.8916 8.07588 1.87948 8.14529 1.86957C8.17669 1.86406 8.20919 1.85965 8.24169 1.85635C8.28465 1.85029 8.32762 1.84478 8.37169 1.84037C8.41025 1.83597 8.4488 1.83266 8.48791 1.82881C8.50113 1.82715 8.51325 1.82605 8.52647 1.8255C8.55291 1.82275 8.57935 1.82109 8.60635 1.81999C8.63885 1.81724 8.67135 1.81448 8.70385 1.81393C8.74846 1.81118 8.79363 1.80953 8.83825 1.80842C8.89279 1.80677 8.94732 1.80567 9.00185 1.80567C12.1979 1.80567 14.7885 4.3974 14.7885 7.5923C14.7885 10.7872 12.1979 13.3789 9.00185 13.3789V13.3811ZM25.1956 13.3811C23.597 13.3811 22.1505 12.7333 21.1039 11.6862C20.0562 10.6407 19.4079 9.19305 19.4079 7.5945C19.4079 5.99595 20.0562 4.54943 21.1039 3.50282C22.1505 2.45512 23.597 1.80787 25.1956 1.80787C25.2562 1.80787 25.3168 1.80897 25.3768 1.81063C25.4154 1.81228 25.455 1.81338 25.4936 1.81614C25.7018 1.8266 25.9073 1.84753 26.1094 1.88003C26.1464 1.88554 26.1833 1.8916 26.2202 1.89876C26.2675 1.90758 26.3149 1.91639 26.3617 1.92575C26.4091 1.93567 26.4559 1.94503 26.5022 1.9566C26.5611 1.96982 26.619 1.98359 26.6768 1.99957C26.711 2.00838 26.7451 2.0183 26.7798 2.02766C26.8388 2.04419 26.8977 2.06181 26.9566 2.08109C26.9858 2.08991 27.0139 2.09982 27.042 2.10808C27.0492 2.11084 27.0564 2.11359 27.063 2.1158C27.1043 2.12902 27.1445 2.14389 27.1852 2.15876C27.2277 2.17363 27.269 2.18961 27.3103 2.20613C27.3175 2.20889 27.3246 2.21164 27.3323 2.21495C27.3676 2.22927 27.4034 2.24304 27.4386 2.25902C27.5097 2.28821 27.5808 2.31961 27.6502 2.35321C27.6882 2.37084 27.7256 2.38846 27.7636 2.40774C27.8038 2.42813 27.8446 2.44796 27.8848 2.46944C27.9245 2.49037 27.9647 2.5124 28.0044 2.53444C28.0837 2.57851 28.1619 2.62423 28.2379 2.6716C28.2765 2.69639 28.3145 2.72007 28.3519 2.74431C28.3899 2.7691 28.4274 2.79444 28.4643 2.81978C28.5392 2.871 28.6119 2.92333 28.6841 2.97787C28.7309 3.01202 28.7755 3.04728 28.8202 3.08418C28.8455 3.10456 28.8714 3.12549 28.8956 3.14588C28.9882 3.22244 29.0774 3.30121 29.1639 3.38329C29.165 3.38439 29.165 3.38494 29.165 3.38494C29.2118 3.42791 29.2575 3.47198 29.301 3.5177C29.3247 3.54028 29.3484 3.56507 29.3716 3.58986C29.3831 3.60032 29.3936 3.61079 29.4024 3.62236C29.4288 3.6488 29.4536 3.67579 29.4779 3.70333C29.544 3.77549 29.6079 3.84931 29.6685 3.92477C29.691 3.95176 29.7131 3.9793 29.7346 4.0063C29.8409 4.13905 29.94 4.27676 30.0331 4.41943C30.064 4.46405 30.0926 4.50977 30.1218 4.55659C30.1235 4.5599 30.1262 4.5643 30.129 4.56871C30.1587 4.61718 30.1879 4.66511 30.216 4.71468C30.2397 4.756 30.2634 4.79841 30.2865 4.84138C30.303 4.87057 30.3179 4.90032 30.3333 4.93006C30.351 4.96146 30.3669 4.99341 30.3824 5.02591C30.4 5.06116 30.4176 5.09697 30.4341 5.13333C30.4666 5.20163 30.4975 5.27104 30.5272 5.34154C30.5272 5.34265 30.5283 5.34265 30.5272 5.3432C30.5432 5.37735 30.557 5.4126 30.5702 5.44786C30.579 5.46824 30.5867 5.48917 30.595 5.5101C30.6071 5.53985 30.6187 5.5707 30.6291 5.60154C30.6528 5.66379 30.6749 5.72659 30.6952 5.78938C30.7085 5.82959 30.7217 5.87036 30.7338 5.91167L30.747 5.95629C30.747 5.95629 30.7481 5.95739 30.7481 5.95794C30.7536 5.97557 30.758 5.99319 30.763 6.01082C30.8026 6.14853 30.8368 6.2901 30.866 6.43277C30.8748 6.47739 30.8836 6.52311 30.8924 6.56883C30.9029 6.62612 30.9117 6.68396 30.9205 6.74179C30.926 6.78035 30.931 6.81836 30.9365 6.85692C30.9426 6.90154 30.947 6.94561 30.9514 6.99022C30.9585 7.05082 30.9635 7.11251 30.9679 7.17366C30.9707 7.21387 30.9734 7.25463 30.9751 7.29594C30.9778 7.34277 30.9795 7.39014 30.9811 7.43641C30.9822 7.48929 30.9828 7.54107 30.9828 7.59395C30.9828 10.79 28.3922 13.3806 25.1961 13.3806L25.1956 13.3811Z" fill="#FF2C91"/>
<path d="M9.04593 9.00592C9.81775 9.00592 10.4434 8.38025 10.4434 7.60843C10.4434 6.83662 9.81775 6.21094 9.04593 6.21094C8.27412 6.21094 7.64844 6.83662 7.64844 7.60843C7.64844 8.38025 8.27412 9.00592 9.04593 9.00592Z" fill="white"/>
<path d="M25.21 9.00592C25.9818 9.00592 26.6075 8.38025 26.6075 7.60843C26.6075 6.83662 25.9818 6.21094 25.21 6.21094C24.4382 6.21094 23.8125 6.83662 23.8125 7.60843C23.8125 8.38025 24.4382 9.00592 25.21 9.00592Z" fill="white"/>
<path d="M24.8053 19.6442L22.9308 20.4105C22.684 21.7551 21.5052 22.7736 20.0906 22.7736C19.4737 22.7736 18.9024 22.5802 18.4331 22.2514L16.5586 23.0176C17.4234 23.992 18.6854 24.6062 20.0901 24.6062C22.6972 24.6062 24.8108 22.4926 24.8108 19.8855C24.8108 19.8045 24.8092 19.7235 24.8047 19.6437L24.8053 19.6442Z" fill="#FF2C91"/>
<path d="M18.0047 27.7244C17.7001 27.7425 17.3933 27.7519 17.0842 27.7519C8.70092 27.7519 1.90625 20.9567 1.90625 12.5739C1.90625 11.9107 1.94867 11.2568 2.03239 10.6162C2.43782 11.551 3.02612 12.3883 3.75158 13.0823C4.00938 20.9247 10.2157 27.2611 18.0047 27.7244Z" fill="#E2E2E2"/>
<path d="M136.982 24.0302V21.482H139.566V24.0302H136.982Z" fill="white"/>
<path d="M142.144 13.2849V11.1465H144.621V13.2849H142.144ZM142.144 24.0302V14.657H144.621V24.0302H142.144Z" fill="white"/>
<path d="M151.207 24.244C150.185 24.244 149.318 24.0718 148.605 23.7273C147.892 23.3709 147.352 22.8303 146.984 22.1057C146.615 21.3691 146.431 20.4484 146.431 19.3436C146.431 18.215 146.615 17.2943 146.984 16.5815C147.352 15.8569 147.892 15.3223 148.605 14.9777C149.318 14.6213 150.185 14.4431 151.207 14.4431C152.252 14.4431 153.126 14.6213 153.826 14.9777C154.539 15.3223 155.08 15.8569 155.448 16.5815C155.816 17.2943 156 18.215 156 19.3436C156 20.4484 155.816 21.3691 155.448 22.1057C155.08 22.8303 154.539 23.3709 153.826 23.7273C153.126 24.0718 152.252 24.244 151.207 24.244ZM151.207 22.3195C151.753 22.3195 152.187 22.2185 152.508 22.0166C152.84 21.8146 153.084 21.5057 153.238 21.0899C153.393 20.6741 153.47 20.1633 153.47 19.5574V19.1298C153.47 18.5239 153.393 18.0131 153.238 17.5973C153.084 17.1815 152.84 16.8726 152.508 16.6706C152.187 16.4568 151.753 16.3499 151.207 16.3499C150.672 16.3499 150.239 16.4568 149.906 16.6706C149.585 16.8726 149.348 17.1815 149.193 17.5973C149.039 18.0131 148.962 18.5239 148.962 19.1298V19.5574C148.962 20.1633 149.039 20.6741 149.193 21.0899C149.348 21.5057 149.585 21.8146 149.906 22.0166C150.239 22.2185 150.672 22.3195 151.207 22.3195Z" fill="white"/>
</svg>
