<svg width="288" height="291" viewBox="0 0 288 291" fill="none" xmlns="http://www.w3.org/2000/svg">
<g clip-path="url(#clip0_6558_23879)">
<path d="M288.001 206.129L282.957 131.849L276.605 124.69L267.795 91.0485L260.279 83.8959L258.984 71.4429L252.087 65.9861L248.708 40.8298L243.114 42.6947L241.606 53.1702L235.461 55.4856L228.239 80.2225L219.234 85.2601L211.806 109.334L202.05 115.904L172.676 207.086L288.001 206.129Z" fill="white"/>
<path d="M285.385 167.573L270.955 156.96L264.616 133.969L256.674 132.642L251.374 113.462L245.448 114.783L240.567 124.689L231.318 126.472L223.602 102.686L216.55 103.318L211.337 88.1432L207.069 92.8178L203.759 101.998L196.487 104.645L190.974 116.71L179.948 118.738L157.62 207.085L288.001 206.127L285.385 167.573Z" fill="#ECECEC"/>
<path opacity="0.1" d="M42.4941 266.402C-13.6569 233.98 -13.6569 181.421 42.4941 149C98.6452 116.578 189.683 116.578 245.841 149C301.992 181.421 301.992 233.98 245.841 266.402C189.69 298.823 98.6452 298.823 42.4941 266.402Z" fill="#FAFAFA"/>
<path d="M194.439 283.277L127.449 178.779L77.2743 207.852L62.1931 215.055L13.0132 244.179L194.439 283.277Z" fill="#E0E0E0"/>
<path d="M274.189 268.054L227.099 194.594L191.831 215.032L181.23 220.095L146.656 240.57L274.189 268.054Z" fill="#E0E0E0"/>
<path opacity="0.1" d="M53.1456 41.38C52.4697 41.0734 51.6687 41.0483 51.093 40.9983C50.4297 40.9482 50.2169 40.8168 50.0918 40.6729C48.4773 38.3575 45.8052 38.2699 44.2095 38.9332C43.8215 37.3437 41.8941 35.9608 39.7727 36.4238C39.8478 34.3588 37.207 32.131 34.829 31.6304C32.5512 31.1485 30.5675 31.3488 29.2721 32.8444C27.8829 30.1285 22.4324 29.3651 19.485 30.8043C17.7891 31.6304 16.3498 32.4752 15.649 34.0334C15.1859 35.0596 15.0169 35.7417 15.0107 37.1247C13.8592 36.1109 11.5626 35.8356 10.0232 36.4301C8.37116 37.0684 8.246 38.3199 8.1584 39.584C6.53763 39.1772 5.44878 39.4401 5.1484 39.5277C4.10336 39.8343 3.50261 40.6541 3.64654 41.3174C2.82051 41.2736 0.855569 41.9369 1.08085 42.8068C1.33742 43.783 3.5777 43.6828 4.41624 43.6516C5.11086 43.6265 6.00572 43.4388 6.76291 43.2824C6.99445 43.395 7.60145 43.5139 7.98318 43.5139C9.40995 43.5014 10.017 42.8944 10.2485 42.3625C10.9431 43.833 13.4274 44.9469 15.1796 45.3975C18.4837 46.2423 23.1583 45.7291 25.1921 43.2573C25.4048 43.7016 25.7615 44.1146 26.1745 44.4588C26.9818 45.1221 28.0706 45.5915 29.2283 45.6979C30.5863 45.823 34.2283 45.9982 35.2546 43.8393C35.9805 45.2723 39.222 45.9294 41.6876 45.579C42.6075 45.4475 43.6463 45.1284 44.4472 44.7467C45.0918 44.44 45.461 44.1397 46.0367 43.7955C46.5248 43.5014 46.7439 43.5076 47.3884 43.7016C49.078 44.2085 51.0429 44.4213 52.7701 43.7016C54.1468 43.1259 54.4347 41.9682 53.1456 41.3862V41.38Z" fill="#F0F0F0"/>
<path opacity="0.1" d="M220.515 50.6705C219.865 50.3764 219.095 50.3514 218.538 50.3076C217.9 50.2575 217.693 50.1324 217.568 49.9884C216.01 47.7607 213.432 47.6731 211.898 48.3113C211.523 46.7782 209.664 45.4453 207.618 45.8958C207.687 43.8996 205.14 41.7594 202.856 41.2713C200.659 40.802 198.751 41.0023 197.499 42.4415C196.16 39.8258 190.91 39.0874 188.063 40.4703C186.429 41.2651 185.04 42.0849 184.364 43.5805C183.92 44.5692 183.757 45.2263 183.751 46.5592C182.643 45.583 180.428 45.3201 178.945 45.8896C177.349 46.5091 177.23 47.7106 177.149 48.9309C175.585 48.5366 174.54 48.7932 174.245 48.8808C173.238 49.1812 172.662 49.9697 172.8 50.6079C172.005 50.5641 170.109 51.2087 170.328 52.0472C170.572 52.9922 172.737 52.892 173.545 52.867C174.214 52.842 175.078 52.6605 175.804 52.5103C176.023 52.6167 176.611 52.7356 176.98 52.7356C178.357 52.7231 178.939 52.1348 179.164 51.6217C179.834 53.036 182.23 54.1186 183.92 54.5503C187.105 55.3639 191.611 54.8695 193.569 52.4915C193.776 52.9171 194.12 53.3176 194.521 53.6492C195.297 54.2875 196.348 54.7381 197.468 54.8445C198.776 54.9696 202.287 55.1323 203.275 53.0547C203.976 54.4377 207.099 55.0697 209.477 54.7318C210.365 54.6067 211.36 54.3 212.136 53.9308C212.762 53.6367 213.112 53.3426 213.663 53.0109C214.132 52.7293 214.345 52.7356 214.965 52.9233C216.598 53.4177 218.488 53.6179 220.152 52.9233C221.479 52.3664 221.754 51.2525 220.509 50.6893L220.515 50.6705Z" fill="#F5F5F5"/>
<path opacity="0.1" d="M82.9142 124.802C81.9255 124.388 80.7616 124.376 79.9168 124.338C78.9468 124.288 78.6402 124.107 78.4462 123.9C75.9994 120.609 72.1196 120.59 69.8292 121.616C69.1972 119.32 66.3437 117.392 63.2836 118.156C63.3024 115.146 59.3787 112.029 55.9057 111.397C52.5828 110.79 49.7105 111.166 47.8832 113.394C45.7493 109.507 37.8082 108.625 33.5842 110.834C31.1562 112.104 29.1036 113.394 28.1462 115.678C27.5141 117.186 27.3014 118.187 27.3452 120.19C25.6368 118.769 22.2826 118.462 20.0799 119.389C17.7019 120.384 17.5705 122.205 17.508 124.051C15.1363 123.525 13.5718 123.95 13.1338 124.094C11.6319 124.589 10.7934 125.796 11.0311 126.754C9.82966 126.723 7.0074 127.774 7.37035 129.026C7.7771 130.434 11.0311 130.196 12.2514 130.121C13.2589 130.052 14.5543 129.745 15.6431 129.489C15.9811 129.645 16.8697 129.795 17.4266 129.776C19.5042 129.701 20.3552 128.788 20.6681 128.005C21.7445 130.108 25.3927 131.629 27.9584 132.211C32.7894 133.3 39.5604 132.361 42.4139 128.688C42.7393 129.326 43.2775 129.908 43.8907 130.39C45.0922 131.322 46.6942 131.954 48.3838 132.061C50.3613 132.186 55.6554 132.292 57.0571 129.113C58.171 131.166 62.9081 131.979 66.4751 131.372C67.808 131.147 69.2973 130.634 70.4488 130.046C71.3749 129.57 71.9006 129.119 72.7141 128.6C73.4087 128.156 73.7278 128.149 74.6728 128.412C77.1508 129.082 80.0106 129.307 82.4887 128.181C84.4662 127.286 84.8354 125.596 82.933 124.802H82.9142Z" fill="#EBEBEB"/>
<path opacity="0.1" d="M212.643 159.266C211.849 158.922 210.91 158.909 210.234 158.872C209.458 158.828 209.208 158.678 209.051 158.509C207.111 155.843 203.982 155.799 202.136 156.613C201.642 154.761 199.364 153.19 196.892 153.784C196.93 151.369 193.795 148.828 191.01 148.296C188.338 147.783 186.029 148.065 184.546 149.842C182.862 146.701 176.48 145.931 173.063 147.677C171.098 148.678 169.44 149.704 168.651 151.532C168.132 152.739 167.956 153.54 167.975 155.155C166.611 153.997 163.914 153.728 162.137 154.46C160.216 155.249 160.097 156.707 160.034 158.19C158.132 157.752 156.868 158.083 156.511 158.19C155.297 158.572 154.615 159.541 154.796 160.311C153.833 160.274 151.549 161.1 151.836 162.113C152.156 163.252 154.771 163.083 155.754 163.027C156.561 162.983 157.612 162.745 158.488 162.545C158.758 162.67 159.471 162.802 159.921 162.789C161.592 162.745 162.281 162.013 162.537 161.388C163.388 163.09 166.311 164.335 168.369 164.823C172.249 165.737 177.7 165.03 180.021 162.095C180.278 162.608 180.71 163.083 181.198 163.471C182.155 164.229 183.438 164.748 184.796 164.848C186.386 164.967 190.641 165.086 191.792 162.545C192.675 164.204 196.473 164.892 199.345 164.429C200.422 164.254 201.623 163.859 202.549 163.39C203.3 163.015 203.72 162.658 204.383 162.245C204.946 161.894 205.203 161.894 205.96 162.107C207.95 162.664 210.247 162.864 212.249 161.976C213.845 161.269 214.158 159.917 212.631 159.26L212.643 159.266Z" fill="#EBEBEB"/>
<path opacity="0.1" d="M85.4474 18.3388C85.0218 18.1448 84.5149 18.126 84.1457 18.101C83.7265 18.0697 83.5888 17.9821 83.5074 17.8945C82.4812 16.4302 80.7916 16.3739 79.7778 16.7931C79.5275 15.7856 78.3135 14.9095 76.9681 15.2037C77.0119 13.8958 75.341 12.4878 73.8392 12.1686C72.3999 11.862 71.1421 11.9934 70.3161 12.9383C69.4337 11.2175 65.9857 10.7356 64.1146 11.643C63.0383 12.1686 62.1309 12.7005 61.6866 13.6893C61.3925 14.3401 61.2861 14.7719 61.2798 15.648C60.5539 15.0034 59.0959 14.8345 58.1196 15.2099C57.0746 15.6167 56.9932 16.4052 56.9432 17.2061C55.9169 16.9496 55.2285 17.1123 55.0346 17.1686C54.3712 17.3626 53.9958 17.882 54.0834 18.3013C53.564 18.27 52.3187 18.6955 52.4564 19.2462C52.6191 19.8657 54.0396 19.8031 54.5715 19.7844C55.0095 19.7656 55.579 19.6529 56.0546 19.5528C56.1985 19.6216 56.5865 19.703 56.8243 19.6967C57.7317 19.6905 58.1134 19.3025 58.2573 18.9646C58.7016 19.897 60.2723 20.6041 61.3799 20.8857C63.47 21.4239 66.4362 21.0922 67.7191 19.534C67.8567 19.8156 68.082 20.0785 68.3449 20.2912C68.858 20.7105 69.5463 21.0046 70.2785 21.0735C71.1358 21.1548 73.4449 21.2612 74.0958 19.897C74.5588 20.8044 76.6114 21.2174 78.1696 20.9984C78.7515 20.917 79.4086 20.7105 79.9155 20.4727C80.3285 20.2787 80.56 20.0847 80.923 19.872C81.2296 19.6842 81.3673 19.6905 81.7803 19.8156C82.8504 20.141 84.0957 20.2725 85.1908 19.8156C86.0606 19.4527 86.2484 18.7205 85.4286 18.3513L85.4474 18.3388Z" fill="#F5F5F5"/>
<path opacity="0.1" d="M186.723 72.1608C186.323 71.9794 185.847 71.9606 185.503 71.9356C185.109 71.9043 184.984 71.8292 184.909 71.7416C183.951 70.3649 182.362 70.3148 181.417 70.709C181.185 69.7641 180.04 68.9443 178.782 69.2197C178.826 67.9932 177.255 66.6728 175.847 66.3724C174.496 66.0845 173.319 66.2034 172.55 67.092C171.724 65.4775 168.488 65.027 166.736 65.878C165.729 66.3661 164.878 66.873 164.458 67.7929C164.183 68.3999 164.083 68.8067 164.077 69.6264C163.394 69.0257 162.03 68.863 161.117 69.2134C160.134 69.5952 160.059 70.3336 160.009 71.0845C159.045 70.8405 158.401 70.9969 158.219 71.0532C157.6 71.2347 157.243 71.7228 157.331 72.117C156.843 72.092 155.672 72.4862 155.81 73.0056C155.96 73.5876 157.293 73.525 157.794 73.5063C158.207 73.4937 158.739 73.3811 159.189 73.2872C159.327 73.3561 159.684 73.4249 159.915 73.4249C160.766 73.4249 161.123 73.0557 161.261 72.7366C161.674 73.6064 163.15 74.276 164.189 74.5388C166.154 75.0394 168.926 74.7328 170.134 73.2685C170.259 73.5313 170.472 73.7753 170.716 73.9819C171.198 74.3761 171.842 74.6514 172.531 74.7203C173.338 74.7954 175.497 74.9017 176.11 73.6189C176.542 74.47 178.469 74.8579 179.927 74.6514C180.478 74.5763 181.091 74.3824 181.567 74.1571C181.949 73.9756 182.168 73.7941 182.512 73.5939C182.8 73.4187 182.931 73.4249 183.313 73.5376C184.32 73.8379 185.484 73.9631 186.511 73.5376C187.33 73.1934 187.499 72.5113 186.73 72.1608H186.723Z" fill="#F5F5F5"/>
<g opacity="0.2">
<path d="M248.121 9.92957C247.99 9.92957 247.89 9.82319 247.89 9.69804V1.5817C247.89 1.45028 247.996 1.35016 248.121 1.35016C248.246 1.35016 248.353 1.45654 248.353 1.5817V9.69804C248.353 9.82945 248.246 9.92957 248.121 9.92957Z" fill="#FF2C91"/>
<path d="M243.891 45.647C243.759 45.647 243.659 45.5406 243.659 45.4154V37.2991C243.659 37.1677 243.766 37.0676 243.891 37.0676C244.016 37.0676 244.122 37.1739 244.122 37.2991V45.4154C244.122 45.5469 244.016 45.647 243.891 45.647Z" fill="#FF2C91"/>
<path d="M252.829 14.3298C252.791 14.3298 252.748 14.3173 252.71 14.2985C252.597 14.2359 252.56 14.092 252.622 13.9793L255.664 8.71028C255.726 8.59764 255.87 8.5601 255.983 8.62268C256.096 8.68525 256.133 8.82918 256.07 8.94182L253.029 14.2109C252.985 14.286 252.91 14.3298 252.829 14.3298Z" fill="#FF2C91"/>
<path d="M236.151 38.4093C236.113 38.4093 236.069 38.3968 236.032 38.378C235.919 38.3154 235.882 38.1715 235.944 38.0589L238.985 32.7898C239.048 32.6772 239.192 32.6396 239.305 32.7022C239.417 32.7648 239.455 32.9087 239.392 33.0214L236.351 38.2904C236.307 38.3655 236.232 38.4093 236.151 38.4093Z" fill="#FF2C91"/>
<path d="M256.262 20.9051C256.156 20.9051 256.056 20.83 256.031 20.7173C256.006 20.5922 256.087 20.467 256.212 20.442L261.481 19.4282C261.613 19.4032 261.732 19.4846 261.757 19.6097C261.782 19.7349 261.7 19.86 261.575 19.885L256.306 20.8988C256.306 20.8988 256.275 20.8988 256.262 20.8988V20.9051Z" fill="#FF2C91"/>
<path d="M230.481 27.5864C230.375 27.5864 230.275 27.5113 230.25 27.3987C230.225 27.2735 230.306 27.1484 230.437 27.1233L235.706 26.1096C235.838 26.0845 235.957 26.1659 235.982 26.291C236.007 26.4162 235.925 26.5414 235.8 26.5664L230.531 27.5801C230.531 27.5801 230.5 27.5801 230.487 27.5801L230.481 27.5864Z" fill="#FF2C91"/>
<path d="M263.612 31.4136C263.574 31.4136 263.53 31.4011 263.493 31.3824L257.404 27.8655C257.291 27.8029 257.254 27.659 257.316 27.5463C257.379 27.4337 257.523 27.3962 257.635 27.4587L263.724 30.9756C263.837 31.0382 263.874 31.1821 263.812 31.2948C263.768 31.3698 263.693 31.4136 263.612 31.4136Z" fill="#FF2C91"/>
<path d="M234.494 19.5665C234.456 19.5665 234.413 19.554 234.375 19.5352L228.286 16.0183C228.174 15.9557 228.136 15.8118 228.199 15.6992C228.261 15.5865 228.405 15.549 228.518 15.6116L234.607 19.1284C234.719 19.191 234.757 19.3349 234.694 19.4476C234.65 19.5227 234.575 19.5665 234.494 19.5665Z" fill="#FF2C91"/>
<path d="M260.385 41.1718C260.316 41.1718 260.241 41.1405 260.197 41.0779L254.928 33.9754C254.853 33.8752 254.871 33.7251 254.978 33.65C255.084 33.5749 255.228 33.5936 255.303 33.7L260.572 40.8026C260.647 40.9027 260.629 41.0529 260.522 41.128C260.478 41.1593 260.435 41.1718 260.385 41.1718Z" fill="#FF2C91"/>
<path d="M237.456 12.5878C237.388 12.5878 237.312 12.5565 237.269 12.494L232 5.39138C231.924 5.28499 231.943 5.14107 232.05 5.06597C232.156 4.99088 232.3 5.00965 232.375 5.11603L237.644 12.2186C237.719 12.3187 237.7 12.4689 237.594 12.544C237.55 12.5753 237.506 12.5878 237.456 12.5878Z" fill="#FF2C91"/>
<path d="M253.344 45.913C253.251 45.913 253.157 45.8504 253.125 45.7565L250.084 36.9706C250.04 36.8517 250.109 36.714 250.228 36.6765C250.353 36.6327 250.485 36.7015 250.522 36.8204L253.563 45.6063C253.607 45.7252 253.538 45.8629 253.419 45.9005C253.394 45.9067 253.369 45.913 253.344 45.913Z" fill="#FF2C91"/>
<path d="M242.27 9.52576C242.176 9.52576 242.082 9.46318 242.051 9.36932L239.009 0.583395C238.966 0.464497 239.034 0.326826 239.153 0.289279C239.278 0.245475 239.41 0.31431 239.447 0.433208L242.489 9.21913C242.533 9.33803 242.464 9.4757 242.345 9.51324C242.32 9.5195 242.295 9.52576 242.27 9.52576Z" fill="#FF2C91"/>
</g>
<path d="M239.883 13.7704L239.288 12.5251L241.898 11.0232C242.204 10.8417 242.536 10.704 242.88 10.6102C242.999 10.5789 243.124 10.5539 243.243 10.5288C243.819 10.4287 244.432 10.4412 245.077 10.5789C245.296 10.6227 245.515 10.6853 245.74 10.7604C245.965 10.8355 246.191 10.9231 246.422 11.0232C246.71 11.1483 247.004 11.2985 247.298 11.4737C247.611 11.6552 247.912 11.8555 248.212 12.0745C248.437 12.2372 248.662 12.4187 248.881 12.6001C252.123 15.3348 254.67 20.2096 255.314 24.8967C255.358 25.2158 255.396 25.535 255.421 25.8479C255.458 26.2984 255.477 26.749 255.477 27.1933C255.477 27.5562 255.465 27.9067 255.433 28.2509C255.408 28.545 255.377 28.8328 255.333 29.1019C255.289 29.3773 255.239 29.6401 255.177 29.8966C255.002 30.6601 254.745 31.3297 254.42 31.9054C254.351 32.0306 254.276 32.1494 254.201 32.2683C253.869 32.7752 253.481 33.1945 253.043 33.5199C252.905 33.62 252.761 33.7139 252.617 33.8015L250.152 35.2283L249.607 34.0894C249.463 34.0581 249.313 34.0205 249.169 33.9767C248.612 33.814 248.043 33.5574 247.455 33.2133C247.111 33.013 246.779 32.7877 246.447 32.5437C246.022 32.2245 245.609 31.8741 245.208 31.4861C242.505 28.8829 240.377 24.8153 239.595 20.7603C239.476 20.1595 239.395 19.5588 239.338 18.9643C239.295 18.4699 239.27 17.9756 239.27 17.4875C239.27 16.7365 239.332 16.0357 239.445 15.3911C239.545 14.8029 239.689 14.2647 239.87 13.7704H239.883Z" fill="#FF2C91"/>
<path opacity="0.25" d="M254.732 22.121L249.438 25.1811L248.744 23.1661L254.044 20.106C254.307 20.7693 254.538 21.4452 254.739 22.121H254.732Z" fill="white"/>
<path opacity="0.25" d="M241.892 11.0209C242.199 10.8394 242.53 10.7017 242.875 10.6079C242.993 10.5766 243.119 10.5515 243.238 10.5265C243.813 10.4264 244.427 10.4389 245.071 10.5766C245.152 10.5953 245.234 10.6141 245.315 10.6329L239.871 13.7806V13.768L239.276 12.5227L241.886 11.0209H241.892Z" fill="white"/>
<path opacity="0.25" d="M242.462 18.7477L241.767 17.9092L249.702 13.341C249.952 13.5913 250.203 13.8541 250.44 14.1295L242.462 18.754V18.7477Z" fill="white"/>
<path opacity="0.25" d="M252.129 16.3744L245.252 20.348L244.495 18.3706L250.896 14.6722C251.328 15.2042 251.741 15.7799 252.129 16.3806V16.3744Z" fill="white"/>
<path opacity="0.4" d="M241.892 11.0209C242.199 10.8394 242.53 10.7017 242.874 10.6079C242.993 10.5766 243.118 10.5515 243.237 10.5265C243.813 10.4264 244.426 10.4389 245.071 10.5766C245.29 10.6204 245.509 10.683 245.734 10.758C245.959 10.8331 246.185 10.9207 246.416 11.0209C246.704 11.146 246.998 11.2962 247.292 11.4714C247.605 11.6529 247.906 11.8532 248.206 12.0722C248.431 12.2349 248.657 12.4164 248.876 12.5978C251.892 15.1447 254.307 19.544 255.152 23.9244L244.107 30.3011C241.936 27.7354 240.265 24.2373 239.589 20.7517C239.47 20.151 239.389 19.5502 239.333 18.9557C239.289 18.4614 239.264 17.967 239.264 17.4789C239.264 16.728 239.326 16.0271 239.439 15.3825C239.539 14.7943 239.683 14.2561 239.864 13.7618L239.27 12.5165L241.879 11.0146L241.892 11.0209Z" fill="white"/>
<path opacity="0.1" d="M250.164 35.2215L249.62 34.0826C249.476 34.0513 249.326 34.0137 249.182 33.9699C248.625 33.8072 248.055 33.5507 247.467 33.2065C247.123 33.0062 246.791 32.781 246.46 32.5369C246.034 32.2178 245.621 31.8673 245.221 31.4793C244.845 31.1164 244.476 30.7222 244.125 30.3029L255.17 23.9262C255.233 24.2516 255.289 24.5708 255.333 24.8899C255.377 25.2091 255.415 25.5282 255.44 25.8411C255.477 26.2916 255.496 26.7422 255.496 27.1865C255.496 27.5495 255.483 27.8999 255.452 28.2441C255.427 28.5382 255.396 28.826 255.352 29.0951C255.308 29.3705 255.258 29.6333 255.195 29.8899C255.02 30.6533 254.764 31.3229 254.438 31.8986C254.369 32.0238 254.294 32.1427 254.219 32.2616C253.888 32.7684 253.5 33.1877 253.062 33.5131C252.924 33.6132 252.78 33.7071 252.636 33.7947L250.171 35.2215H250.164Z" fill="black"/>
<path opacity="0.1" d="M254.434 31.9087C254.365 32.0338 254.29 32.1527 254.215 32.2716C253.883 32.7785 253.495 33.1978 253.057 33.5232C252.92 33.6233 252.776 33.7171 252.632 33.8048L250.166 35.2315L249.622 34.0926H249.603L249.565 33.6233L255.053 30.4568C254.891 30.995 254.684 31.4894 254.44 31.9212L254.434 31.9087Z" fill="black"/>
<path d="M236.499 19.0999C236.499 19.588 236.518 20.0824 236.568 20.5768C236.624 21.1713 236.706 21.772 236.824 22.3728C237.607 26.4215 239.734 30.4953 242.438 33.0986C242.838 33.4866 243.251 33.837 243.677 34.1561C244.008 34.4065 244.34 34.6255 244.684 34.8257C245.272 35.1699 245.848 35.4202 246.399 35.5892C247.037 35.7832 247.65 35.8583 248.226 35.827C249.077 35.7832 249.847 35.5016 250.51 35.0072C250.948 34.6818 251.336 34.2625 251.668 33.7556C251.743 33.643 251.818 33.5179 251.887 33.3927C252.212 32.817 252.469 32.1411 252.644 31.384C252.707 31.1274 252.757 30.8646 252.801 30.5892C252.844 30.3139 252.876 30.0323 252.901 29.7382C252.926 29.4002 252.944 29.0435 252.944 28.6806C252.944 28.2363 252.926 27.7857 252.888 27.3352C252.863 27.016 252.826 26.7031 252.782 26.384C252.137 21.6969 249.584 16.8221 246.349 14.0875C246.13 13.8997 245.904 13.7245 245.679 13.5618C245.379 13.3428 245.072 13.1425 244.766 12.9611C244.471 12.7858 244.177 12.6356 243.889 12.5105C243.658 12.4104 243.433 12.3228 243.207 12.2477C242.982 12.1726 242.763 12.1163 242.544 12.0662C241.899 11.9285 241.28 11.916 240.71 12.0161C240.585 12.0349 240.466 12.0662 240.348 12.0975C239.828 12.2414 239.346 12.4792 238.908 12.8109C238.251 13.3115 237.707 14.0249 237.306 14.926C237.037 15.533 236.824 16.2339 236.693 17.0036C236.58 17.6481 236.524 18.349 236.518 19.0999H236.499Z" fill="#FF2C91"/>
<path opacity="0.1" d="M236.499 19.0999C236.499 19.588 236.518 20.0824 236.568 20.5768C236.624 21.1713 236.706 21.772 236.824 22.3728C237.607 26.4215 239.734 30.4953 242.438 33.0986C242.838 33.4866 243.251 33.837 243.677 34.1561C244.008 34.4065 244.34 34.6255 244.684 34.8257C245.272 35.1699 245.848 35.4202 246.399 35.5892C247.037 35.7832 247.65 35.8583 248.226 35.827C249.077 35.7832 249.847 35.5016 250.51 35.0072C250.948 34.6818 251.336 34.2625 251.668 33.7556C251.743 33.643 251.818 33.5179 251.887 33.3927C252.212 32.817 252.469 32.1411 252.644 31.384C252.707 31.1274 252.757 30.8646 252.801 30.5892C252.844 30.3139 252.876 30.0323 252.901 29.7382C252.926 29.4002 252.944 29.0435 252.944 28.6806C252.944 28.2363 252.926 27.7857 252.888 27.3352C252.863 27.016 252.826 26.7031 252.782 26.384C252.137 21.6969 249.584 16.8221 246.349 14.0875C246.13 13.8997 245.904 13.7245 245.679 13.5618C245.379 13.3428 245.072 13.1425 244.766 12.9611C244.471 12.7858 244.177 12.6356 243.889 12.5105C243.658 12.4104 243.433 12.3228 243.207 12.2477C242.982 12.1726 242.763 12.1163 242.544 12.0662C241.899 11.9285 241.28 11.916 240.71 12.0161C240.585 12.0349 240.466 12.0662 240.348 12.0975C239.828 12.2414 239.346 12.4792 238.908 12.8109C238.251 13.3115 237.707 14.0249 237.306 14.926C237.037 15.533 236.824 16.2339 236.693 17.0036C236.58 17.6481 236.524 18.349 236.518 19.0999H236.499Z" fill="white"/>
<path opacity="0.05" d="M252.607 25.4135C252.669 25.7389 252.725 26.0643 252.769 26.3835C252.813 26.7026 252.851 27.0218 252.876 27.3347C252.913 27.7852 252.932 28.2358 252.932 28.6801C252.932 29.043 252.919 29.3935 252.888 29.7376C252.863 30.0318 252.832 30.3196 252.788 30.5887C252.744 30.864 252.694 31.1269 252.632 31.3834C252.456 32.1469 252.2 32.8165 251.874 33.3922C251.806 33.5173 251.73 33.6362 251.655 33.7551C251.324 34.262 250.936 34.6813 250.498 35.0067C249.841 35.5011 249.065 35.7827 248.214 35.8265C247.638 35.8577 247.031 35.7827 246.386 35.5887C245.829 35.4197 245.26 35.1694 244.672 34.8252C244.365 34.65 244.071 34.4497 243.777 34.237L252.6 25.4135H252.607Z" fill="black"/>
<path opacity="0.05" d="M252.482 31.9525C252.319 32.4844 252.119 32.9663 251.875 33.3981C251.806 33.5232 251.731 33.6421 251.656 33.761C251.324 34.2679 250.936 34.6872 250.498 35.0126C249.953 35.4193 249.334 35.6822 248.652 35.7823L252.475 31.9588L252.482 31.9525Z" fill="black"/>
<path opacity="0.15" d="M251.487 21.5966C251.75 22.2599 251.981 22.9295 252.175 23.6116L242.563 33.2235C242.519 33.1797 242.476 33.1422 242.432 33.0984C242.025 32.7041 241.631 32.2786 241.255 31.8218L251.487 21.5903V21.5966Z" fill="white"/>
<path opacity="0.15" d="M248.339 16.1565C248.77 16.6884 249.183 17.2641 249.571 17.8649L238.989 28.4468C238.645 27.8022 238.332 27.1326 238.051 26.4505L248.339 16.1628V16.1565Z" fill="white"/>
<path opacity="0.15" d="M247.137 14.8253C247.393 15.0756 247.637 15.3384 247.881 15.62L237.769 25.7326C237.625 25.3508 237.493 24.9754 237.375 24.5874L247.137 14.8253Z" fill="white"/>
<path opacity="0.15" d="M236.519 18.3708C236.531 18.1768 236.544 17.9828 236.562 17.7951C236.569 17.7325 236.575 17.67 236.581 17.6074C236.587 17.5448 236.594 17.4822 236.606 17.4196C236.625 17.282 236.644 17.1443 236.669 17.0066C236.8 16.2307 237.007 15.5361 237.282 14.929C237.683 14.0279 238.227 13.3145 238.884 12.8139C239.316 12.4823 239.798 12.2445 240.323 12.1005C240.442 12.0692 240.567 12.0442 240.686 12.0192C241.262 11.9191 241.875 11.9316 242.52 12.0692C242.601 12.088 242.682 12.1068 242.764 12.1256L236.519 18.3708Z" fill="white"/>
<path d="M238.588 20.3541C238.588 24.6782 241.11 29.6719 244.301 31.7933C244.439 31.8809 244.577 31.9685 244.714 32.0499C248.093 34.0023 250.834 31.931 250.834 27.4191C250.834 22.9073 248.093 17.6758 244.714 15.7233C244.577 15.642 244.439 15.5732 244.301 15.5043C241.11 13.9461 238.588 16.03 238.588 20.3541Z" fill="#FF2C91"/>
<path opacity="0.4" d="M238.588 20.3541C238.588 24.6782 241.11 29.6719 244.301 31.7933C244.439 31.8809 244.577 31.9685 244.714 32.0499C248.093 34.0023 250.834 31.931 250.834 27.4191C250.834 22.9073 248.093 17.6758 244.714 15.7233C244.577 15.642 244.439 15.5732 244.301 15.5043C241.11 13.9461 238.588 16.03 238.588 20.3541Z" fill="black"/>
<path d="M238.864 20.5152C238.864 20.6528 238.864 20.7968 238.87 20.9344C239.027 24.9644 241.374 29.4826 244.321 31.4475L244.402 31.4976C244.509 31.5664 244.609 31.629 244.715 31.6915C245.36 32.0608 245.973 32.2798 246.555 32.3611C247.925 32.5489 249.077 31.9481 249.784 30.7153C250.203 29.9957 250.466 29.0508 250.541 27.9244C250.554 27.7116 250.566 27.4926 250.566 27.2673C250.566 27.0608 250.566 26.8543 250.547 26.6415C250.522 26.2035 250.472 25.7592 250.397 25.3149C249.884 22.1985 248.22 19.0258 246.104 17.1172C245.804 16.8418 245.491 16.5978 245.172 16.3788C245.022 16.2724 244.865 16.1785 244.715 16.0909C244.584 16.0158 244.452 15.947 244.321 15.8844C244.283 15.8656 244.246 15.8469 244.208 15.8343C243.332 15.4276 242.512 15.3087 241.787 15.4464C240.554 15.6842 239.609 16.6666 239.152 18.2311C238.958 18.8944 238.858 19.6578 238.858 20.5152H238.864Z" fill="#FF2C91"/>
<path opacity="0.5" d="M238.864 20.5152C238.864 20.6528 238.864 20.7968 238.87 20.9344C239.027 24.9644 241.374 29.4826 244.321 31.4475L244.402 31.4976C244.509 31.5664 244.609 31.629 244.715 31.6915C245.36 32.0608 245.973 32.2798 246.555 32.3611C247.925 32.5489 249.077 31.9481 249.784 30.7153C250.203 29.9957 250.466 29.0508 250.541 27.9244C250.554 27.7116 250.566 27.4926 250.566 27.2673C250.566 27.0608 250.566 26.8543 250.547 26.6415C250.522 26.2035 250.472 25.7592 250.397 25.3149C249.884 22.1985 248.22 19.0258 246.104 17.1172C245.804 16.8418 245.491 16.5978 245.172 16.3788C245.022 16.2724 244.865 16.1785 244.715 16.0909C244.584 16.0158 244.452 15.947 244.321 15.8844C244.283 15.8656 244.246 15.8469 244.208 15.8343C243.332 15.4276 242.512 15.3087 241.787 15.4464C240.554 15.6842 239.609 16.6666 239.152 18.2311C238.958 18.8944 238.858 19.6578 238.858 20.5152H238.864Z" fill="black"/>
<path d="M239.842 20.3691C239.835 20.2252 239.835 20.0875 239.835 19.9499C239.835 19.0925 239.942 18.3291 240.13 17.6658C240.392 16.7521 240.83 16.0387 241.387 15.5506C241.519 15.5068 241.656 15.4693 241.794 15.438C242.514 15.3003 243.34 15.4192 244.216 15.826C244.253 15.8447 244.291 15.8573 244.329 15.876C244.46 15.9386 244.591 16.0075 244.723 16.0825C244.879 16.1702 245.029 16.2703 245.18 16.3704C245.499 16.5894 245.812 16.8335 246.112 17.1088C248.227 19.0174 249.885 22.1901 250.405 25.3065C250.48 25.7508 250.53 26.1951 250.555 26.6332C250.568 26.8459 250.574 27.0524 250.574 27.2589C250.574 27.4842 250.568 27.7032 250.555 27.916C250.48 29.0424 250.217 29.9811 249.798 30.707C249.579 31.0824 249.322 31.4016 249.028 31.6519C248.571 31.8083 248.071 31.8584 247.539 31.7833C246.963 31.702 246.344 31.4829 245.699 31.1137C245.593 31.0511 245.492 30.9886 245.386 30.9197L245.305 30.8697C242.357 28.911 240.011 24.3866 239.854 20.3566L239.842 20.3691Z" fill="#FF2C91"/>
<path opacity="0.25" d="M239.842 20.3691C239.835 20.2252 239.835 20.0875 239.835 19.9499C239.835 19.0925 239.942 18.3291 240.13 17.6658C240.392 16.7521 240.83 16.0387 241.387 15.5506C241.519 15.5068 241.656 15.4693 241.794 15.438C242.514 15.3003 243.34 15.4192 244.216 15.826C244.253 15.8447 244.291 15.8573 244.329 15.876C244.46 15.9386 244.591 16.0075 244.723 16.0825C244.879 16.1702 245.029 16.2703 245.18 16.3704C245.499 16.5894 245.812 16.8335 246.112 17.1088C248.227 19.0174 249.885 22.1901 250.405 25.3065C250.48 25.7508 250.53 26.1951 250.555 26.6332C250.568 26.8459 250.574 27.0524 250.574 27.2589C250.574 27.4842 250.568 27.7032 250.555 27.916C250.48 29.0424 250.217 29.9811 249.798 30.707C249.579 31.0824 249.322 31.4016 249.028 31.6519C248.571 31.8083 248.071 31.8584 247.539 31.7833C246.963 31.702 246.344 31.4829 245.699 31.1137C245.593 31.0511 245.492 30.9886 245.386 30.9197L245.305 30.8697C242.357 28.911 240.011 24.3866 239.854 20.3566L239.842 20.3691Z" fill="black"/>
<path d="M240.686 12.0164C244.222 11.6159 247.094 14.5446 249.015 17.1791C251.787 21.2654 253.546 26.4406 252.582 31.3842V31.3717C252.269 32.7484 251.643 34.1252 250.498 35.0012C251.668 34.1439 252.344 32.7672 252.676 31.378C253.558 27.3355 252.451 23.0802 250.598 19.4569C248.615 15.8712 245.248 11.5221 240.686 12.0102V12.0164Z" fill="#F5F5F5"/>
<path d="M249.347 16.3576L249.503 14.2988L249.66 16.3576L251.719 16.514L249.66 16.6767L249.503 18.7355L249.347 16.6767L247.282 16.514L249.347 16.3576Z" fill="white"/>
<path d="M250.96 18.0546L251.035 17.0533L251.11 18.0546L252.112 18.1297L251.11 18.2048L251.035 19.206L250.96 18.2048L249.959 18.1297L250.96 18.0546Z" fill="white"/>
<path d="M184.362 203.856C184.243 203.856 184.124 203.825 184.018 203.75C183.492 203.4 182.973 203.062 182.453 202.724C182.166 202.536 182.078 202.148 182.266 201.86C182.453 201.572 182.841 201.485 183.129 201.672C183.655 202.01 184.181 202.354 184.706 202.705C184.994 202.899 185.069 203.287 184.881 203.575C184.763 203.756 184.562 203.856 184.362 203.856Z" fill="#455A64"/>
<path d="M179.474 200.76C179.368 200.76 179.255 200.728 179.155 200.672C178.022 199.996 176.89 199.339 175.788 198.738C175.488 198.569 175.375 198.194 175.544 197.887C175.713 197.587 176.095 197.474 176.395 197.643C177.509 198.256 178.661 198.914 179.806 199.602C180.1 199.777 180.2 200.165 180.019 200.459C179.9 200.653 179.693 200.766 179.48 200.766L179.474 200.76ZM172.622 197.005C172.528 197.005 172.434 196.986 172.347 196.942C171.17 196.36 169.987 195.816 168.83 195.309C168.511 195.171 168.367 194.802 168.504 194.483C168.642 194.164 169.011 194.02 169.33 194.158C170.507 194.665 171.708 195.228 172.904 195.816C173.216 195.966 173.342 196.342 173.185 196.654C173.079 196.874 172.854 197.005 172.622 197.005ZM165.457 193.907C165.382 193.907 165.313 193.895 165.238 193.87C164.018 193.419 162.785 193.006 161.571 192.637C161.239 192.537 161.051 192.186 161.151 191.855C161.252 191.523 161.602 191.335 161.934 191.436C163.173 191.811 164.431 192.23 165.67 192.687C165.995 192.806 166.158 193.169 166.039 193.488C165.945 193.738 165.707 193.895 165.451 193.895L165.457 193.907ZM157.979 191.655C157.929 191.655 157.885 191.655 157.835 191.636C156.583 191.348 155.307 191.091 154.043 190.879C153.698 190.822 153.473 190.503 153.529 190.159C153.586 189.821 153.905 189.583 154.249 189.646C155.544 189.859 156.846 190.121 158.123 190.415C158.461 190.491 158.667 190.828 158.592 191.166C158.523 191.454 158.267 191.648 157.985 191.648L157.979 191.655ZM130.795 191.004C130.488 191.004 130.219 190.778 130.175 190.466C130.125 190.121 130.369 189.808 130.707 189.758C132.04 189.571 133.348 189.414 134.606 189.283C134.95 189.258 135.257 189.496 135.294 189.84C135.332 190.184 135.082 190.491 134.737 190.528C133.492 190.66 132.197 190.816 130.883 190.997C130.851 190.997 130.826 190.997 130.795 190.997V191.004ZM150.275 190.378C150.275 190.378 150.232 190.378 150.213 190.378C148.949 190.253 147.647 190.159 146.352 190.109C146.008 190.096 145.739 189.802 145.751 189.458C145.764 189.114 146.076 188.832 146.402 188.857C147.722 188.907 149.043 189.001 150.338 189.133C150.682 189.17 150.933 189.477 150.895 189.821C150.864 190.14 150.588 190.384 150.275 190.384V190.378ZM138.567 190.209C138.242 190.209 137.966 189.952 137.941 189.621C137.923 189.277 138.179 188.976 138.53 188.957C139.856 188.876 141.183 188.826 142.466 188.807C142.822 188.776 143.098 189.076 143.098 189.427C143.098 189.771 142.829 190.059 142.478 190.059C141.214 190.078 139.913 190.128 138.605 190.209C138.592 190.209 138.58 190.209 138.567 190.209Z" fill="#455A64"/>
<path d="M125.064 191.92C124.77 191.92 124.5 191.707 124.45 191.407C124.388 191.069 124.613 190.744 124.957 190.681C125.583 190.568 126.203 190.462 126.816 190.356C127.154 190.293 127.479 190.531 127.535 190.869C127.592 191.207 127.36 191.532 127.022 191.588C126.415 191.688 125.796 191.801 125.176 191.907C125.139 191.914 125.101 191.92 125.064 191.92Z" fill="#455A64"/>
<path d="M274.188 254.905L191.829 201.883L189.576 211.257L274.188 254.905Z" fill="#F0F0F0"/>
<path d="M206.385 211.257L206.597 220.206L189.576 211.257L191.829 201.883L206.385 211.257Z" fill="#E0E0E0"/>
<path d="M191.829 201.883L189.576 211.257L190.139 211.545L192.505 201.883H191.829Z" fill="#455A64"/>
<path d="M146.655 227.425L274.188 254.909L181.229 206.949L146.655 227.425Z" fill="white"/>
<path d="M146.655 227.425L198.694 215.96L181.229 206.949L146.655 227.425Z" fill="#F5F5F5"/>
<path d="M181.242 207.512L270.659 253.638L147.988 227.206L181.242 207.512ZM181.223 206.949L146.655 227.425L274.182 254.909L181.223 206.955V206.949Z" fill="#455A64"/>
<path d="M274.186 254.903L191.828 201.881L227.096 181.443L274.186 254.903Z" fill="white"/>
<path d="M206.383 211.255L227.096 181.443L191.828 201.881L206.383 211.255Z" fill="#F5F5F5"/>
<path d="M226.934 182.107L272.547 253.258L192.773 201.9L226.94 182.107M227.103 181.443L191.828 201.881L274.186 254.903L227.096 181.45L227.103 181.443Z" fill="#455A64"/>
<path d="M69.1199 199.576C69.001 199.576 68.8821 199.545 68.7757 199.47C68.25 199.12 67.7307 198.782 67.2113 198.444C66.9234 198.256 66.8358 197.868 67.0235 197.58C67.2113 197.292 67.5992 197.205 67.8871 197.392C68.4127 197.73 68.9321 198.075 69.4641 198.425C69.7519 198.619 69.827 199.007 69.6393 199.295C69.5204 199.476 69.3201 199.576 69.1199 199.576Z" fill="#455A64"/>
<path d="M64.2321 196.479C64.1257 196.479 64.013 196.448 63.9129 196.391C62.7802 195.709 61.6476 195.058 60.5462 194.458C60.2458 194.289 60.1332 193.913 60.3022 193.607C60.4711 193.306 60.8466 193.194 61.1532 193.363C62.2671 193.976 63.4185 194.633 64.5637 195.321C64.8578 195.496 64.958 195.884 64.7765 196.179C64.6576 196.373 64.4511 196.485 64.2383 196.485L64.2321 196.479ZM57.3798 192.724C57.2859 192.724 57.1921 192.705 57.1044 192.662C55.928 192.08 54.7453 191.535 53.5876 191.028C53.2684 190.891 53.1245 190.522 53.2622 190.202C53.3998 189.883 53.769 189.739 54.0882 189.877C55.2647 190.384 56.4661 190.947 57.6614 191.535C57.9743 191.685 58.0994 192.061 57.943 192.374C57.8366 192.593 57.6113 192.724 57.3798 192.724ZM50.2146 189.627C50.1395 189.627 50.0707 189.614 49.9956 189.589C48.7753 189.139 47.5426 188.726 46.3286 188.356C45.9969 188.256 45.8092 187.906 45.9093 187.574C46.0094 187.242 46.3536 187.055 46.6915 187.155C47.9305 187.53 49.1884 187.95 50.4274 188.406C50.7528 188.525 50.9155 188.888 50.7966 189.207C50.7027 189.458 50.4649 189.614 50.2084 189.614L50.2146 189.627ZM42.7366 187.374C42.6865 187.374 42.6427 187.374 42.5927 187.355C41.3411 187.067 40.0645 186.811 38.8004 186.598C38.4563 186.542 38.231 186.222 38.2873 185.878C38.3436 185.54 38.6628 185.303 39.0069 185.365C40.3023 185.578 41.6039 185.841 42.8805 186.135C43.2184 186.21 43.4249 186.548 43.3498 186.886C43.281 187.174 43.0244 187.368 42.7428 187.368L42.7366 187.374ZM15.5528 186.723C15.2462 186.723 14.9771 186.498 14.9333 186.185C14.8832 185.841 15.1273 185.528 15.4652 185.478C16.7981 185.296 18.106 185.134 19.3638 185.002C19.7142 184.971 20.0146 185.215 20.0521 185.559C20.0897 185.903 19.8394 186.21 19.4952 186.247C18.2499 186.379 16.9545 186.535 15.6404 186.717C15.6091 186.717 15.5841 186.717 15.5528 186.717V186.723ZM35.0333 186.097C35.0333 186.097 34.9895 186.097 34.9707 186.097C33.7066 185.972 32.405 185.878 31.1096 185.828C30.7655 185.816 30.4964 185.522 30.5089 185.177C30.5214 184.833 30.8093 184.558 31.1597 184.577C32.4801 184.627 33.8005 184.721 35.0958 184.852C35.44 184.89 35.6903 185.196 35.6528 185.54C35.6215 185.859 35.3461 186.104 35.0333 186.104V186.097ZM23.325 185.928C22.9996 185.928 22.7242 185.672 22.6992 185.34C22.6804 184.996 22.937 184.696 23.2874 184.677C24.6141 184.595 25.9407 184.545 27.2236 184.527C27.5677 184.502 27.8556 184.796 27.8556 185.146C27.8556 185.49 27.5865 185.778 27.2361 185.778C25.972 185.797 24.6704 185.847 23.3625 185.928C23.35 185.928 23.3375 185.928 23.325 185.928Z" fill="#455A64"/>
<path d="M9.82145 187.632C9.52733 187.632 9.25825 187.419 9.20818 187.119C9.14561 186.781 9.37089 186.455 9.71507 186.393C10.3408 186.28 10.9604 186.174 11.5736 186.067C11.9115 186.005 12.237 186.242 12.2933 186.58C12.3496 186.918 12.1181 187.244 11.7801 187.3C11.1731 187.4 10.5536 187.507 9.93409 187.619C9.89654 187.625 9.85899 187.632 9.82145 187.632Z" fill="#455A64"/>
<path d="M13.0151 231.041L194.441 270.139L62.195 201.917L13.0151 231.041Z" fill="#FF2C91"/>
<path d="M194.441 270.137L77.2769 194.712L127.452 165.639L194.441 270.137Z" fill="#FF2C91"/>
<path opacity="0.2" d="M13.0151 231.041L87.0447 214.733L62.195 201.917L13.0151 231.041Z" fill="black"/>
<path opacity="0.2" d="M97.9838 208.041L127.452 165.639L77.2769 194.712L97.9838 208.041Z" fill="black"/>
<path d="M194.441 270.142L77.2762 194.717L74.0723 208.046L194.441 270.142Z" fill="#FF2C91"/>
<path opacity="0.2" d="M194.441 270.142L77.2762 194.717L74.0723 208.046L194.441 270.142Z" fill="black"/>
<path opacity="0.2" d="M97.9832 208.046L97.7892 220.28L74.0723 208.046L77.2762 194.717L97.9832 208.046Z" fill="black"/>
<path d="M106.472 207.751L108.599 206.656L106.472 206.099V207.751Z" fill="#263238"/>
<path d="M127.829 211.399C127.829 211.399 102.309 200.298 102.022 202.019C101.959 202.401 101.978 202.739 102.053 203.052C102.028 203.02 102.003 202.989 101.984 202.958L102.503 206.155C102.503 206.155 104.343 207.682 106.471 207.751C106.471 207.595 106.471 206.644 106.471 206.099C107.165 206.381 107.879 206.712 108.724 207.257C110.363 208.314 111.44 210.185 113.198 212.357C114.481 213.94 116.734 214.647 120.056 215.073C123.636 215.53 126.771 214.785 127.641 213.809C128.336 213.026 127.96 211.618 127.829 211.399Z" fill="#263238"/>
<path d="M127.123 210.814C126.872 210.563 125.952 209.575 124.713 208.505C123.631 207.566 122.36 206.383 121.009 205.426C120.464 205.044 119.638 204.437 119.169 203.949C118.718 203.48 118.287 202.992 117.886 202.478C116.641 200.889 115.615 199.131 114.745 197.309C114.332 196.446 113.581 194.537 113.731 190.983C113.956 185.595 114.363 183.643 114.325 180.144L102.267 181.997C102.648 183.93 103.099 188.254 103.318 190.457C103.656 193.805 104.144 194.118 102.899 197.485C102.53 198.473 101.973 199.431 101.941 200.488C101.891 202.203 103.249 203.667 104.764 204.481C106.015 205.157 107.448 205.432 108.668 206.152C109.945 206.909 110.952 208.073 111.872 209.218C112.742 210.301 113.449 211.59 114.657 212.341C115.996 213.173 117.267 213.423 118.806 213.711C120.577 214.043 122.849 214.049 124.357 213.905C126.985 213.655 128.925 212.666 127.123 210.82V210.814Z" fill="#FFA8A7"/>
<path d="M125.639 208.969C124.532 208.061 122.967 206.766 121.071 205.308C120.652 205.101 118.975 204.726 117.147 205.727C113.411 207.78 112.817 210.608 112.817 210.608C112.817 210.608 113.656 212.504 115.933 213.261C120.314 215.101 128.086 214.375 128.13 212.36C128.161 211.078 126.978 210.07 125.639 208.969ZM103.13 196.747C103.13 196.747 102.886 197.411 102.241 198.718C101.597 200.026 101.497 201.322 102.341 202.604C103.462 204.3 104.813 204.807 106.196 205.151C107.341 201.309 104.651 197.554 103.13 196.747Z" fill="#37474F"/>
<path d="M81.2609 206.572C81.9555 207.736 80.9417 212.066 81.0419 215.164C81.1357 217.98 81.6238 222.373 80.8666 225.652C80.0907 229.012 77.2184 232.523 73.4136 229.369C71.0544 227.41 70.1283 225.089 69.8842 221.034C69.7153 218.218 70.9105 214.35 71.9431 210.915C73.1508 206.91 73.6201 204.763 73.6201 204.763L81.2609 206.572Z" fill="#263238"/>
<path d="M73.7324 185.674C73.3257 192.226 73.9952 196.844 73.9577 201.049C73.8764 203.002 73.7136 204.654 73.2506 206.706C72.6498 209.372 71.6361 213.083 71.2105 214.81C70.616 217.226 70.1655 218.746 70.954 221.487C71.0165 221.7 71.1104 221.906 71.2168 222.107C72.3432 224.372 75.2844 226.124 76.2481 225.874C76.5046 226.324 77.1742 226.6 77.9126 226.493C78.019 226.481 78.1254 226.456 78.2318 226.424C78.3381 226.393 78.4445 226.349 78.5509 226.299C79.1892 225.999 79.8025 225.373 80.1779 224.272C80.2405 224.09 80.2968 223.89 80.3406 223.684C81.0978 220.317 80.641 218.127 80.6035 216.806C80.5597 215.279 80.6848 213.339 80.8663 210.88C81.0478 208.421 81.7862 200.711 82.7123 197.032C83.4007 194.466 84.2517 191.25 85.1529 187.82L73.7262 185.686L73.7324 185.674Z" fill="#FFA8A7"/>
<path d="M70.5653 217.959C72.937 216.97 79.7455 216.957 80.7655 220.293C80.7342 223.415 80.7092 225.53 78.6816 228.203C75.9908 231.757 72.6491 227.865 71.3913 225.412C70.1273 222.959 70.2149 219.629 70.5653 217.952V217.959Z" fill="#37474F"/>
<path d="M85.034 93.3588C81.5985 99.2411 76.974 107.414 76.5422 120.724C75.9727 138.471 75.6035 151.181 75.4721 153.321C75.347 155.461 73.8889 159.353 72.5122 169.866C71.1355 180.379 72.6373 200.486 72.6373 200.486C72.6373 200.486 73.8138 202.876 77.8375 203.346C81.5484 203.777 83.2881 202.044 83.2881 202.044C83.2881 202.044 89.1641 173.909 90.7411 167.601C92.3243 161.293 97.7185 133.69 97.7185 133.69L99.6897 150.686C99.6897 150.686 98.4006 156.475 99.283 165.749C100.165 175.023 103.1 192.914 103.1 192.914C103.1 192.914 104.784 194.691 108.726 194.535C112.337 194.391 114.158 192.394 114.158 192.394C114.158 192.394 117.612 157.088 117.9 146.613C118.181 136.137 117.894 109.973 115.015 94.3726L85.0277 93.3713L85.034 93.3588Z" fill="#37474F"/>
<path d="M100.959 116.901L97.7297 133.672L99.7009 150.668L99.7697 134.536L102.974 118.56C105.514 118.022 112.054 113.597 112.611 109.342C109.081 114.868 100.952 116.908 100.952 116.908L100.959 116.901ZM82.0602 179.917C81.0089 185.362 80.0202 190.818 79.1128 196.294C80.452 190.906 81.716 185.512 82.9175 180.099C84.1315 174.686 85.2767 169.279 86.4156 163.835C87.4857 158.372 88.8749 146.013 89.4819 140.5C90.1015 134.986 90.5708 129.461 90.9838 123.929C90.1453 129.411 89.3881 134.905 88.6246 140.393C87.8424 145.875 86.4094 158.203 85.3268 163.622C84.2191 169.029 83.1115 174.486 82.0727 179.924L82.0602 179.917ZM113.074 140.606C113.118 143.009 113.199 145.431 113.093 147.809C112.98 150.193 112.767 152.608 112.579 155.011L112.016 162.233C111.641 167.045 111.315 171.864 111.052 176.695C111.747 171.914 112.367 167.12 112.886 162.314C113.412 157.508 113.912 152.721 114.206 147.865C114.325 142.978 114.037 138.172 113.737 133.341C113.418 128.516 112.974 123.704 112.354 118.91L112.867 133.384C112.936 135.794 113.024 138.209 113.068 140.618L113.074 140.606Z" fill="#263238"/>
<path d="M86.8009 33.676C83.3717 35.5096 83.0212 38.3569 82.8522 45.2967C82.5394 57.8811 78.6846 72.2114 78.6846 72.2114L107.464 72.5431L109.016 43.7323C109.016 43.7323 111.563 40.6472 111.45 37.3243C111.338 34.0014 109.523 29.596 103.422 27.994C98.3403 26.6611 88.4405 27.1805 86.8009 33.6698V33.676Z" fill="#263238"/>
<path d="M141.129 69.5111C139.54 62.4962 135.547 52.7903 133.682 48.1721C133.157 46.8767 132.512 44.0232 132.268 42.9281C131.755 40.5627 131.304 39.1922 130.284 37.4087C129.615 36.2448 129.008 35.1184 127.206 33.5352C126.674 33.0721 125.973 33.0909 125.729 33.3412C125.165 32.803 124.815 32.4964 124.196 32.3149C123.714 32.1647 123.207 32.2461 122.7 32.2273C121.899 32.196 121.436 31.7142 120.923 31.1572C120.672 30.8944 120.428 30.594 120.084 30.4689C119.533 30.2623 119.264 30.6378 119.152 31.1009C118.977 31.7642 119.083 32.4839 119.327 33.1347C119.721 34.1922 120.397 34.9619 120.935 35.9382C121.755 37.4212 122.975 39.2986 122.906 41.0257C122.894 41.3762 122.763 42.1021 122.324 41.6265C121.749 41.007 121.217 40.3374 120.547 39.8242C119.878 39.3111 119.014 38.9669 118.188 39.1296C117.938 39.1797 117.687 39.2798 117.531 39.4863C117.318 39.7804 117.456 39.9807 117.631 40.206C117.819 40.4375 117.957 40.7128 118.113 40.9757C118.42 41.5138 118.732 42.052 119.052 42.5902C120.916 45.7128 121.749 47.0269 124.433 49.1483C124.853 49.4862 126.198 50.2622 127.162 53.0156C128.125 55.7691 128.833 64.4736 128.833 64.4736C128.833 64.4736 127.606 64.1858 119.483 62.2396C112.869 60.6501 111.261 60.6001 106.805 60.0681L112.562 73.7727C112.562 73.7727 122.093 75.5123 131.498 76.9954C138.682 78.1281 143.038 77.9404 141.129 69.5111Z" fill="#FFA8A7"/>
<path d="M128.25 59.4571L127.869 56.7225C127.869 56.7225 129.79 57.6048 132.643 57.0354C135.497 56.4597 136.648 55.1768 136.648 55.1768L137.556 57.4609C137.556 57.4609 135.616 58.8251 133.038 59.357C130.459 59.8889 128.257 59.4571 128.257 59.4571H128.25Z" fill="#F0F0F0"/>
<path d="M106.969 59.9425C110.886 60.1365 114.647 60.8249 120.229 62.1203C125.204 63.2779 128.664 64.2104 128.664 64.2104L128.001 58.3781C128.001 58.3781 129.678 59.4544 133.107 58.8412C136.537 58.2279 137.419 56.8011 137.419 56.8011C137.419 56.8011 140.948 66.3568 141.743 70.9625C142.444 75.0426 141.386 78.6158 135.817 78.1214C128.977 77.5144 111.399 74.4105 111.399 74.4105L106.962 59.9425H106.969Z" fill="#FF2C91"/>
<path opacity="0.15" d="M128.671 64.2074C128.946 68.0058 129.71 70.8656 131.093 72.5365C128.715 71.2286 127.232 67.5052 127.119 63.8006L128.665 64.2074H128.671Z" fill="black"/>
<path d="M113.916 39.2223C113.49 39.36 113.14 39.6979 112.964 40.2048C112.62 41.2185 113.115 42.5139 114.078 43.0959C114.548 43.3837 115.042 43.4463 115.461 43.3149C115.605 43.2711 116.951 42.8018 117.082 42.758C117.508 42.6203 117.864 42.2824 118.033 41.7755C118.377 40.7617 117.883 39.4664 116.919 38.8844C116.444 38.5965 115.949 38.534 115.524 38.6716C115.386 38.7154 114.041 39.1848 113.909 39.2286L113.916 39.2223Z" fill="#FAFAFA"/>
<path d="M113.916 39.2223C113.49 39.36 113.14 39.6979 112.964 40.2048C112.62 41.2185 113.115 42.5139 114.078 43.0959C114.548 43.3837 115.042 43.4463 115.461 43.3149C115.605 43.2711 116.951 42.8018 117.082 42.758C117.508 42.6203 117.864 42.2824 118.033 41.7755C118.377 40.7617 117.883 39.4664 116.919 38.8844C116.444 38.5965 115.949 38.534 115.524 38.6716C115.386 38.7154 114.041 39.1848 113.909 39.2286L113.916 39.2223Z" fill="#FF2C91"/>
<path opacity="0.25" d="M113.916 39.2223C113.49 39.36 113.14 39.6979 112.964 40.2048C112.62 41.2185 113.115 42.5139 114.078 43.0959C114.548 43.3837 115.042 43.4463 115.461 43.3149C115.605 43.2711 116.951 42.8018 117.082 42.758C117.508 42.6203 117.864 42.2824 118.033 41.7755C118.377 40.7617 117.883 39.4664 116.919 38.8844C116.444 38.5965 115.949 38.534 115.524 38.6716C115.386 38.7154 114.041 39.1848 113.909 39.2286L113.916 39.2223Z" fill="white"/>
<path d="M115.675 42.5543C116.632 43.1362 117.69 42.7921 118.034 41.7783C118.378 40.7645 117.884 39.4692 116.92 38.8872C115.963 38.299 114.905 38.6494 114.561 39.6632C114.217 40.6769 114.717 41.9723 115.675 42.5543Z" fill="#FF2C91"/>
<path d="M115.917 38.8648C115.548 38.9836 115.248 39.2778 115.104 39.7096C114.81 40.5794 115.235 41.6933 116.061 42.1939C116.462 42.4379 116.887 42.4943 117.25 42.3816C117.369 42.3441 130.742 38.5769 130.855 38.5456C131.224 38.4267 131.38 37.5068 131.524 37.075C131.818 36.2052 131.393 35.0913 130.567 34.5907C130.16 34.3404 129.44 33.7083 129.077 33.8272C128.959 33.8648 116.03 38.8335 115.917 38.871V38.8648Z" fill="#263238"/>
<path d="M125.518 33.5032C124.761 33.7473 124.142 34.348 123.841 35.2429C123.234 37.0326 124.11 39.3167 125.806 40.3492C126.639 40.8561 127.502 40.9625 128.247 40.7372C128.497 40.6621 154.605 33.3781 154.836 33.303C155.593 33.0589 155.912 31.1691 156.213 30.2742C156.82 28.4845 155.944 26.2004 154.248 25.1679C153.409 24.661 151.939 23.3594 151.188 23.5972C150.944 23.6722 125.75 33.4344 125.518 33.5095V33.5032Z" fill="#E0E0E0"/>
<path d="M151.67 32.742C153.941 34.125 156.444 33.3052 157.264 30.9085C158.078 28.5118 156.901 25.4454 154.629 24.0562C152.358 22.6732 149.855 23.493 149.035 25.8897C148.215 28.2865 149.398 31.3528 151.67 32.742Z" fill="#E0E0E0"/>
<path d="M151.352 33.1491C152.178 33.6497 153.022 33.8875 153.823 33.8813C153.842 33.8813 153.855 33.8813 153.867 33.8813H153.936C153.936 33.8813 153.98 33.8813 154.005 33.8813H154.03L155.319 33.8437C155.319 33.8437 155.294 33.8437 155.281 33.8437C155.263 33.8437 155.244 33.8437 155.225 33.8437C155.163 33.8437 155.113 33.8437 155.05 33.8312C154.931 33.8187 154.8 33.8062 154.674 33.7874C154.024 33.6873 153.367 33.4432 152.716 33.0552C152.397 32.855 152.09 32.6297 151.808 32.3794C149.743 30.5584 148.767 27.4608 149.618 24.9765C149.837 24.3069 150.181 23.7437 150.607 23.2931C150.638 23.2618 150.67 23.2305 150.701 23.193C150.726 23.168 150.757 23.1367 150.788 23.1116C150.788 23.1116 150.795 23.0991 150.801 23.0929L150.989 22.9302C150.989 22.9302 151.039 22.8926 151.057 22.8738L149.981 23.6435H149.975C149.881 23.7186 149.781 23.7937 149.693 23.8751C149.174 24.3256 148.761 24.9389 148.504 25.6961C147.691 28.0803 148.698 31.0778 150.77 32.7173C150.857 32.7862 150.951 32.855 151.039 32.9238C151.051 32.9301 151.064 32.9426 151.076 32.9489C151.176 33.0177 151.27 33.0803 151.37 33.1429L151.352 33.1491Z" fill="#263238"/>
<path d="M157.448 31.7009C160.276 33.428 163.399 32.4018 164.413 29.4168C165.433 26.4256 163.962 22.6083 161.127 20.8812C158.299 19.154 155.176 20.1803 154.156 23.1653C153.136 26.1565 154.607 29.9737 157.442 31.7009H157.448Z" fill="#FF2C91"/>
<path d="M152.597 33.2971C153.117 33.6163 153.655 33.8415 154.18 33.973C154.481 34.0481 155.282 34.1294 155.376 34.1294C155.476 34.1294 155.858 34.1106 155.951 34.0981C156.052 34.0856 156.145 34.0731 156.233 34.0543C156.396 34.023 156.552 33.9855 156.702 33.9417H156.715C156.715 33.9417 156.727 33.9354 156.734 33.9292H156.765L156.834 33.8979L156.871 33.8854L161.521 32.3585C161.483 32.371 161.446 32.3772 161.408 32.3897C161.408 32.3897 161.402 32.3897 161.396 32.3897C161.352 32.4023 161.302 32.4148 161.258 32.4273C161.158 32.4523 161.058 32.4648 160.951 32.4836C160.814 32.5086 160.676 32.5212 160.538 32.5337C159.543 32.5962 158.473 32.3334 157.441 31.7014C157.153 31.5262 156.884 31.3322 156.627 31.1194C154.337 29.217 153.242 25.8566 154.162 23.1658C154.487 22.2083 155.025 21.4574 155.701 20.9318C155.77 20.8754 155.839 20.8254 155.914 20.7816H155.92C155.989 20.7252 156.058 20.6814 156.127 20.6439C156.202 20.6001 156.271 20.5563 156.352 20.5187C156.415 20.4874 156.477 20.4562 156.54 20.4311C156.59 20.4061 156.64 20.3811 156.702 20.3623C156.752 20.3373 156.809 20.3185 156.865 20.2935L152.209 21.8266L151.997 21.9017C150.789 22.3335 149.8 23.3222 149.306 24.7678C148.436 27.3335 149.393 30.5124 151.471 32.4523C151.571 32.5462 151.671 32.6401 151.79 32.7339C152.047 32.9404 152.309 33.1344 152.591 33.3034L152.597 33.2971Z" fill="#FAFAFA"/>
<path d="M165.576 19.6651C168.255 21.2983 169.644 24.9153 168.68 27.7376C168.399 28.5574 167.954 29.2269 167.397 29.715C166.997 30.0655 166.534 30.3221 166.039 30.491H166.027L162.153 31.7926L162.059 31.8239C161.872 31.8802 161.684 31.924 161.49 31.9553C160.445 32.1243 159.281 31.8928 158.167 31.2169C155.489 29.5836 154.099 25.9666 155.063 23.1444C155.464 21.9679 156.208 21.1169 157.135 20.635C157.291 20.5537 157.447 20.4848 157.616 20.4222L157.648 20.4097L157.835 20.3472L161.64 19.0768C162.835 18.6826 164.243 18.8453 165.589 19.6651H165.576Z" fill="#EBEBEB"/>
<path d="M160.206 19.1134C158.942 19.5264 157.91 20.5276 157.396 22.0232C156.376 25.0144 157.847 28.8379 160.682 30.5651C162.071 31.4099 163.523 31.5914 164.768 31.2096C165.187 31.0782 167.866 30.1396 168.254 30.0144C169.518 29.6014 170.557 28.6064 171.07 27.1045C172.09 24.1133 170.619 20.2898 167.784 18.5627C166.389 17.7116 164.918 17.5301 163.667 17.9244C163.26 18.0558 160.594 18.9882 160.206 19.1134Z" fill="#FAFAFA"/>
<path d="M152.597 33.2996C153.117 33.6187 153.655 33.844 154.18 33.9754C154.481 34.0505 155.282 34.1318 155.376 34.1318C155.476 34.1318 155.858 34.1131 155.951 34.1006C156.052 34.088 156.145 34.0755 156.233 34.0568C156.396 34.0255 156.552 33.9879 156.702 33.9441H156.715C156.715 33.9441 156.727 33.9379 156.734 33.9316H156.765L156.834 33.9003L156.871 33.8878L161.521 32.3609C161.483 32.3734 161.446 32.3797 161.408 32.3922C161.408 32.3922 161.402 32.3922 161.396 32.3922C161.352 32.4047 161.302 32.4172 161.258 32.4297C161.158 32.4548 161.058 32.4673 160.951 32.4861C160.814 32.5111 160.676 32.5236 160.538 32.5361C159.543 32.5987 158.473 32.3359 157.441 31.7038C157.153 31.5286 156.884 31.3346 156.627 31.1219C154.337 29.2195 153.242 25.8591 154.162 23.1682C154.487 22.2108 155.025 21.4598 155.701 20.9342C155.77 20.8779 155.839 20.8278 155.914 20.784H155.92C155.989 20.7277 156.058 20.6839 156.127 20.6463C156.202 20.6025 156.271 20.5587 156.352 20.5212C156.415 20.4899 156.477 20.4586 156.54 20.4336C156.59 20.4085 156.64 20.3835 156.702 20.3647C156.752 20.3397 156.809 20.3209 156.865 20.2959L152.209 21.8291L151.997 21.9041C150.789 22.3359 149.8 23.3247 149.306 24.7702C148.436 27.3359 149.393 30.5149 151.471 32.4548C151.571 32.5486 151.671 32.6425 151.79 32.7364C152.047 32.9429 152.309 33.1369 152.591 33.3058L152.597 33.2996Z" fill="#FF2C91"/>
<path opacity="0.25" d="M152.597 33.2996C153.117 33.6187 153.655 33.844 154.18 33.9754C154.481 34.0505 155.282 34.1318 155.376 34.1318C155.476 34.1318 155.858 34.1131 155.951 34.1006C156.052 34.088 156.145 34.0755 156.233 34.0568C156.396 34.0255 156.552 33.9879 156.702 33.9441H156.715C156.715 33.9441 156.727 33.9379 156.734 33.9316H156.765L156.834 33.9003L156.871 33.8878L161.521 32.3609C161.483 32.3734 161.446 32.3797 161.408 32.3922C161.408 32.3922 161.402 32.3922 161.396 32.3922C161.352 32.4047 161.302 32.4172 161.258 32.4297C161.158 32.4548 161.058 32.4673 160.951 32.4861C160.814 32.5111 160.676 32.5236 160.538 32.5361C159.543 32.5987 158.473 32.3359 157.441 31.7038C157.153 31.5286 156.884 31.3346 156.627 31.1219C154.337 29.2195 153.242 25.8591 154.162 23.1682C154.487 22.2108 155.025 21.4598 155.701 20.9342C155.77 20.8779 155.839 20.8278 155.914 20.784H155.92C155.989 20.7277 156.058 20.6839 156.127 20.6463C156.202 20.6025 156.271 20.5587 156.352 20.5212C156.415 20.4899 156.477 20.4586 156.54 20.4336C156.59 20.4085 156.64 20.3835 156.702 20.3647C156.752 20.3397 156.809 20.3209 156.865 20.2959L152.209 21.8291L151.997 21.9041C150.789 22.3359 149.8 23.3247 149.306 24.7702C148.436 27.3359 149.393 30.5149 151.471 32.4548C151.571 32.5486 151.671 32.6425 151.79 32.7364C152.047 32.9429 152.309 33.1369 152.591 33.3058L152.597 33.2996Z" fill="white"/>
<path d="M165.577 19.6659C168.255 21.2991 169.644 24.9161 168.681 27.7384C168.399 28.5582 167.955 29.2277 167.398 29.7158C166.997 30.0663 166.534 30.3228 166.04 30.4918H166.027L162.154 31.7934L162.06 31.8247C161.872 31.881 161.684 31.9248 161.49 31.9561C160.445 32.1251 159.281 31.8935 158.168 31.2177C155.489 29.5844 154.1 25.9674 155.064 23.1452C155.464 21.9687 156.209 21.1177 157.135 20.6358C157.291 20.5545 157.448 20.4856 157.617 20.423L157.648 20.4105L157.836 20.3479L161.641 19.0776C162.836 18.6834 164.244 18.8461 165.589 19.6659H165.577Z" fill="#FF2C91"/>
<path opacity="0.15" d="M165.577 19.6659C168.255 21.2991 169.644 24.9161 168.681 27.7384C168.399 28.5582 167.955 29.2277 167.398 29.7158C166.997 30.0663 166.534 30.3228 166.04 30.4918H166.027L162.154 31.7934L162.06 31.8247C161.872 31.881 161.684 31.9248 161.49 31.9561C160.445 32.1251 159.281 31.8935 158.168 31.2177C155.489 29.5844 154.1 25.9674 155.064 23.1452C155.464 21.9687 156.209 21.1177 157.135 20.6358C157.291 20.5545 157.448 20.4856 157.617 20.423L157.648 20.4105L157.836 20.3479L161.641 19.0776C162.836 18.6834 164.244 18.8461 165.589 19.6659H165.577Z" fill="white"/>
<path d="M160.206 19.1134C158.942 19.5264 157.91 20.5276 157.396 22.0232C156.376 25.0144 157.847 28.8379 160.682 30.5651C162.071 31.4099 163.523 31.5914 164.768 31.2096C165.187 31.0782 167.866 30.1396 168.254 30.0144C169.518 29.6014 170.557 28.6064 171.07 27.1045C172.09 24.1133 170.619 20.2898 167.784 18.5627C166.389 17.7116 164.918 17.5301 163.667 17.9244C163.26 18.0558 160.594 18.9882 160.206 19.1134Z" fill="#FF2C91"/>
<path opacity="0.25" d="M160.206 19.1134C158.942 19.5264 157.91 20.5276 157.396 22.0232C156.376 25.0144 157.847 28.8379 160.682 30.5651C162.071 31.4099 163.523 31.5914 164.768 31.2096C165.187 31.0782 167.866 30.1396 168.254 30.0144C169.518 29.6014 170.557 28.6064 171.07 27.1045C172.09 24.1133 170.619 20.2898 167.784 18.5627C166.389 17.7116 164.918 17.5301 163.667 17.9244C163.26 18.0558 160.594 18.9882 160.206 19.1134Z" fill="white"/>
<path d="M164.093 29.3881C166.928 31.1152 170.051 30.0889 171.065 27.0977C172.085 24.1065 170.614 20.283 167.779 18.5558C164.944 16.8287 161.822 17.855 160.808 20.8462C159.794 23.8374 161.259 27.6609 164.093 29.3881Z" fill="#FF2C91"/>
<path opacity="0.2" d="M168.975 28.802C167.655 29.9597 165.94 29.1212 165.264 28.7144C162.63 27.1061 161.203 23.3953 162.148 20.6106C162.379 19.9222 162.742 19.3528 163.193 18.9585C164.513 17.8008 166.228 18.6394 166.904 19.0461C169.538 20.6544 170.965 24.3652 170.02 27.15C169.789 27.8383 169.426 28.4078 168.975 28.802Z" fill="black"/>
<path d="M165.258 19.5986C164.851 19.3546 164.081 18.9541 163.237 18.9228C163.224 18.9353 163.205 18.9478 163.193 18.9603C162.742 19.3546 162.379 19.924 162.148 20.6124C161.203 23.3971 162.63 27.108 165.264 28.7162C165.671 28.9603 166.441 29.3608 167.285 29.3921C167.298 29.3795 167.317 29.367 167.329 29.3545C167.78 28.9603 168.143 28.3908 168.374 27.7025C169.319 24.9177 167.892 21.2069 165.258 19.5986Z" fill="#FF2C91"/>
<path opacity="0.6" d="M165.258 19.5986C164.851 19.3546 164.081 18.9541 163.237 18.9228C163.224 18.9353 163.205 18.9478 163.193 18.9603C162.742 19.3546 162.379 19.924 162.148 20.6124C161.203 23.3971 162.63 27.108 165.264 28.7162C165.671 28.9603 166.441 29.3608 167.285 29.3921C167.298 29.3795 167.317 29.367 167.329 29.3545C167.78 28.9603 168.143 28.3908 168.374 27.7025C169.319 24.9177 167.892 21.2069 165.258 19.5986Z" fill="white"/>
<path opacity="0.1" d="M162.109 20.7291C161.24 23.5012 162.66 27.1308 165.263 28.7202H165.27C166.24 28.52 167.053 27.8129 167.435 26.7052C168.117 24.709 167.134 22.1621 165.245 21.0044C164.162 20.3473 163.023 20.291 162.116 20.7291H162.109Z" fill="#FF2C91"/>
<path opacity="0.2" d="M161.885 23.0824C162.01 24.4904 162.573 25.9234 163.462 27.0749C164.613 27.6256 165.808 27.1625 166.221 25.961C166.659 24.6782 166.027 23.0324 164.807 22.2877C163.656 21.5868 162.385 21.9435 161.885 23.0824Z" fill="#FF2C91"/>
<path opacity="0.6" d="M162.704 22.2422C162.441 20.7153 163.404 19.5764 164.011 19.6014C164.618 19.6264 168.586 22.0169 167.954 26.729C167.954 26.729 167.847 23.7378 166.045 21.7791C164.337 19.9268 162.804 20.7654 162.704 22.2422Z" fill="white"/>
<path opacity="0.1" d="M151.795 32.7274L156.626 31.1192H156.633L157.233 30.5372L159.599 29.7487C159.693 29.8363 159.799 29.9302 159.918 30.0241L163.366 28.8789C163.597 29.0604 163.829 29.2293 164.086 29.3858C164.173 29.4421 164.267 29.4922 164.355 29.5422C165.118 29.9615 165.9 30.1805 166.651 30.2243C167.146 30.2494 167.621 30.193 168.066 30.0679C168.053 30.0679 168.041 30.0804 168.028 30.0804C167.277 30.337 165.131 31.0879 164.755 31.2005C164.305 31.3382 163.823 31.4008 163.328 31.3883L163.053 31.4821C162.521 31.9577 161.889 32.2769 161.201 32.4333C161.22 32.4333 161.238 32.4271 161.257 32.4208C161.301 32.4083 161.351 32.3958 161.395 32.3833C161.395 32.3833 161.395 32.3833 161.407 32.3833C161.445 32.3707 161.482 32.3645 161.52 32.352L156.87 33.8789L156.833 33.8914L156.764 33.9164H156.733C156.733 33.9164 156.72 33.9289 156.714 33.9352H156.701C156.551 33.9853 156.395 34.0228 156.232 34.0541C156.138 34.0729 156.044 34.0854 155.95 34.0979C155.857 34.1104 155.475 34.1292 155.375 34.1292C155.281 34.1292 154.48 34.0478 154.18 33.9727C153.785 33.8726 153.385 33.7162 152.984 33.5159C152.853 33.4471 152.721 33.372 152.59 33.2969C152.308 33.1279 152.046 32.9339 151.789 32.7274H151.795Z" fill="black"/>
<path d="M81.2378 99.9488C81.607 97.2517 83.4906 96.8512 82.577 90.4057C82.1264 87.2142 80.5244 78.9602 80.5244 78.9602C80.5244 78.9602 86.0125 74.73 84.2478 62.3896L90.1489 60.0117L93.3654 58.8727L102.364 59.2482L106.982 60.5123C108.566 61.8765 111.469 64.0229 113.797 67.3145C117.164 72.0704 117.771 77.3019 114.329 81.213C114.291 81.9702 114.429 93.7348 115.318 96.6009C115.668 97.7398 116.15 99.2855 115.405 100.812C112.095 106.244 92.4517 111.782 81.2378 99.9363V99.9488Z" fill="#FAFAFA"/>
<path d="M102.363 59.2502L106.968 59.9386C111.393 63.2865 116.662 69.319 116.956 73.9623C117.25 78.6056 114.891 81.747 114.891 81.747C114.891 81.747 114.828 91.1899 115.905 96.1711C116.981 101.152 118.176 114.5 118.176 114.5C118.176 114.5 118.27 115.332 114.572 116.371C113.439 109.976 110.629 86.5091 110.786 80.8771C110.942 75.2451 111.048 66.3466 102.356 59.2502H102.363Z" fill="#FF2C91"/>
<path opacity="0.3" d="M102.363 59.2502L106.968 59.9386C111.393 63.2865 116.662 69.319 116.956 73.9623C117.25 78.6056 114.891 81.747 114.891 81.747C114.891 81.747 114.828 91.1899 115.905 96.1711C116.981 101.152 118.176 114.5 118.176 114.5C118.176 114.5 118.27 115.332 114.572 116.371C113.439 109.976 110.629 86.5091 110.786 80.8771C110.942 75.2451 111.048 66.3466 102.356 59.2502H102.363Z" fill="black"/>
<path opacity="0.2" d="M111.487 83.5005C111.85 82.0049 112.251 80.5218 112.664 79.0387C113.077 77.5556 113.459 76.0663 113.828 74.5832C114.003 73.8385 114.172 73.0875 114.247 72.3491C114.36 71.642 113.859 71.0538 113.358 70.5031C112.326 69.4142 111.081 68.4881 109.823 67.6495L109.704 67.5744L109.729 67.4368C109.873 66.6483 109.848 65.8035 109.716 64.9962C109.579 64.189 109.303 63.3943 108.865 62.6996C108.408 62.0175 107.801 61.4293 107.132 60.9287C106.462 60.4281 105.724 60.0025 104.96 59.6521C105.755 59.9337 106.519 60.3217 107.232 60.791C107.945 61.2541 108.596 61.8361 109.103 62.5432C109.591 63.2691 109.91 64.0826 110.086 64.9337C110.255 65.7847 110.28 66.6546 110.136 67.5306L110.042 67.3116C111.343 68.1627 112.607 69.0575 113.696 70.209C113.965 70.4968 114.216 70.8097 114.422 71.1727C114.479 71.254 114.516 71.3604 114.56 71.4605C114.604 71.5607 114.647 71.6545 114.66 71.7734C114.716 72.005 114.691 72.2052 114.685 72.4117C114.597 73.2064 114.41 73.9511 114.228 74.7021C113.853 76.1977 113.383 77.6682 112.927 79.1388C112.464 80.6094 111.975 82.0675 111.5 83.5255L111.487 83.5005Z" fill="black"/>
<path d="M90.1527 60.0136C90.1527 60.0136 92.0864 62.5042 94.652 68.3677C97.2177 74.2313 99.6896 79.5629 99.6458 84.9884C99.602 90.4139 97.8247 118.499 97.8247 118.499C97.8247 118.499 90.0401 119.675 82.9875 116.834L83.5633 105.958L80.8912 116.321C80.8912 116.321 77.5182 115.113 76.2729 113.987C78.1127 102.679 82.2241 97.3099 82.4306 93.136C82.5683 90.2699 80.134 82.3226 79.6709 75.1574C79.2642 68.9121 80.5282 62.6106 80.5282 62.6106L90.1464 60.0073L90.1527 60.0136Z" fill="#FF2C91"/>
<path opacity="0.3" d="M90.1527 60.0136C90.1527 60.0136 92.0864 62.5042 94.652 68.3677C97.2177 74.2313 99.6896 79.5629 99.6458 84.9884C99.602 90.4139 97.8247 118.499 97.8247 118.499C97.8247 118.499 90.0401 119.675 82.9875 116.834L83.5633 105.958L80.8912 116.321C80.8912 116.321 77.5182 115.113 76.2729 113.987C78.1127 102.679 82.2241 97.3099 82.4306 93.136C82.5683 90.2699 80.134 82.3226 79.6709 75.1574C79.2642 68.9121 80.5282 62.6106 80.5282 62.6106L90.1464 60.0073L90.1527 60.0136Z" fill="black"/>
<path opacity="0.2" d="M98.6183 86.6092C98.1803 85.2138 97.3543 84.006 96.4782 82.8546C95.6083 81.6969 94.6509 80.608 93.6684 79.5442C93.1866 79.006 92.6922 78.4741 92.1916 77.9422L91.4407 77.1475C91.3155 77.0098 91.1903 76.8846 91.0652 76.7282C91.0339 76.6844 91.0026 76.6656 90.9651 76.603C90.9275 76.5342 90.8962 76.4654 90.8712 76.3965C90.8337 76.2651 90.8399 76.1525 90.8337 76.0336C90.9275 75.1888 91.2717 74.5442 91.5908 73.8684C91.935 73.2113 92.3042 72.5793 92.711 71.9598L92.7485 72.3227L90.5208 70.0762L89.4131 68.9435L89.1378 68.6557L89.0001 68.5117C88.9563 68.4554 88.9188 68.4554 88.8124 68.2865C88.731 68.0674 88.7561 67.9423 88.7561 67.7921C88.7623 67.6482 88.7811 67.5105 88.7999 67.3791C88.9751 66.309 89.2504 65.289 89.5571 64.269C89.87 63.2552 90.1891 62.2414 90.5521 61.2465C90.3017 62.279 90.0389 63.3053 89.8074 64.3378C89.5884 65.3703 89.3255 66.4029 89.2129 67.4354C89.1879 67.6732 89.1753 67.9923 89.2254 68.0987C89.1879 68.0424 89.2504 68.13 89.3005 68.1676L89.4444 68.3052L89.7323 68.5806L90.8775 69.6882L93.1553 71.9285L93.318 72.0849L93.1928 72.2852C92.8174 72.8922 92.4544 73.5242 92.1353 74.1563C91.8224 74.782 91.4845 75.4641 91.4156 76.0711C91.4219 76.1275 91.4156 76.2088 91.4281 76.2464C91.4407 76.2589 91.4407 76.2714 91.4407 76.2902C91.4407 76.3089 91.4845 76.3527 91.5095 76.3778C91.6096 76.5029 91.741 76.6406 91.8537 76.772L92.5921 77.5793C93.0865 78.1174 93.5746 78.6556 94.0502 79.2125C94.9951 80.3264 95.9087 81.4716 96.741 82.6793C97.154 83.2801 97.5295 83.9121 97.8674 84.5629C98.1991 85.2138 98.4744 85.9021 98.6121 86.6217L98.6183 86.6092Z" fill="black"/>
<path d="M89.9533 52.1516C88.683 52.5396 87.3751 52.0389 86.4865 51.2567C84.5215 49.5296 84.1336 47.5834 84.8031 46.1879C85.3538 45.0428 86.9308 44.1667 88.1698 44.7612C89.4965 45.3994 89.6091 46.0252 90.1723 46.8513C90.7543 47.6961 91.8619 46.8513 91.0609 43.3782C93.3388 41.9764 92.5002 37.9902 93.6141 36.2005C95.36 33.397 98.783 33.6911 99.9407 34.173C100.823 33.2781 102.725 32.6711 104.471 33.3657C106.186 34.0478 107.469 35.75 108.739 41.9452C110.041 48.2593 109.415 52.6397 108.095 54.1541C107.187 55.1991 104.891 56.1691 102.632 56.288L102.369 59.761C102.369 59.761 109.828 65.6183 101.493 65.9312C95.2474 66.169 90.7105 59.8236 90.7105 59.8236L91.2048 50.9876C91.2048 50.9876 91.161 51.7761 89.947 52.1453L89.9533 52.1516Z" fill="#FFA8A7"/>
<path d="M98.075 40.5195L95.8222 41.7147C95.5093 41.0639 95.7534 40.2754 96.3729 39.9438C96.9924 39.6121 97.7558 39.8749 98.0687 40.5195H98.075Z" fill="#263238"/>
<path d="M107.043 38.6938L104.509 38.3058C104.59 37.5924 105.216 37.1043 105.917 37.2107C106.618 37.317 107.118 37.9804 107.043 38.6938Z" fill="#263238"/>
<path d="M99.1889 49.0433L102.793 49.5877C102.681 50.6015 101.78 51.3023 100.785 51.1521C99.7897 51.002 99.0763 50.057 99.1889 49.0433Z" fill="#B16668"/>
<path d="M101.478 51.1177C101.253 50.2917 100.496 49.6972 99.6072 49.7223C99.482 49.7223 99.3631 49.741 99.2505 49.7723C99.4507 50.4732 100.039 51.0364 100.79 51.149C101.028 51.1866 101.265 51.1678 101.485 51.1177H101.478Z" fill="#F28F8F"/>
<path d="M106.88 41.4643C107.149 41.9711 106.955 42.6032 106.448 42.866C105.941 43.1351 105.316 42.9348 105.047 42.428C104.777 41.9211 104.971 41.289 105.478 41.0262C105.985 40.7571 106.611 40.9511 106.88 41.4643Z" fill="#263238"/>
<path d="M99.5396 43.2815C99.621 43.4943 98.9389 43.0813 98.2318 43.1814C97.3306 43.3065 96.7987 44.1889 96.8863 43.6194C96.9677 43.1126 97.2743 42.6244 98.1316 42.5056C98.7824 42.4117 99.3144 42.687 99.5396 43.2815Z" fill="#263238"/>
<path d="M101.63 40.6791L102.913 47.3561L106.48 45.8605C105.272 43.3261 103.182 41.7742 101.63 40.6791Z" fill="#F28F8F"/>
<path d="M102.64 56.2952C99.392 56.5392 95.4121 55.7507 94.0166 53.7921C94.9177 55.9698 97.327 56.8771 99.198 57.1838C101.476 57.5592 102.552 57.4529 102.552 57.4529L102.64 56.2889V56.2952Z" fill="#F28F8F"/>
<path d="M75.4879 116.632C74.7495 115.856 73.7983 115.18 73.4792 114.11C73.3102 113.56 73.354 112.921 73.7045 112.471C73.7796 112.377 73.8672 112.283 73.8922 112.17C73.9172 112.076 73.8922 111.97 73.8734 111.876C73.7858 111.469 73.7608 111.031 73.9298 110.656C74.0737 110.337 74.3616 110.08 74.6932 109.98C74.4867 109.392 74.4804 108.735 74.6682 108.14C74.8935 107.439 75.6068 106.864 76.095 107.633C76.3328 108.009 76.5142 108.428 76.6707 108.847C77.0587 109.893 77.3027 110.994 77.4404 112.095C77.5843 113.253 77.9285 116.519 76.1388 116.713C76.0011 116.726 75.6006 116.745 75.5005 116.632H75.4879Z" fill="#F28F8F"/>
<path d="M82.2157 63.2775C75.3384 64.7293 74.6938 66.907 70.7014 72.6516C66.7652 78.3212 61.7152 86.2435 60.4949 89.022C58.9805 92.4637 58.6676 93.7779 62.3973 97.3386C64.3184 99.1721 66.9905 101.344 69.7126 103.809C71.859 105.755 74.4435 107.808 76.5273 109.823C77.078 110.355 77.3721 110.893 77.2032 111.694C77.1093 112.163 76.9153 112.608 76.8715 113.083C76.8152 113.696 77.0154 114.297 77.0593 114.91C77.1031 115.524 76.9216 116.231 76.3709 116.506C76.1018 116.638 75.7952 116.644 75.4948 116.625C76.0267 116.982 76.5837 117.326 77.1969 117.507C77.8164 117.689 78.5048 117.695 79.0743 117.407C79.6312 117.126 80.0442 116.581 80.6325 116.393C80.9516 116.293 81.302 116.3 81.6212 116.206C81.9528 116.112 82.2532 115.905 82.4597 115.63C82.7914 115.192 82.9228 114.572 83.3984 114.303C83.6237 114.172 83.899 114.147 84.1368 114.047C84.6312 113.834 84.9378 113.321 85.0379 112.795C85.138 112.27 85.0567 111.725 84.9628 111.2C84.7188 109.779 84.3996 108.377 84.0054 106.988C83.8677 106.512 83.5861 106.099 83.2983 105.705C82.9666 105.248 82.6475 104.773 82.2845 104.335C79.8502 101.362 72.1156 91.4437 72.1156 91.4437L80.6512 80.2548C80.6512 80.2548 86.884 73.0333 82.2094 63.2837L82.2157 63.2775Z" fill="#FFA8A7"/>
<path d="M72.1223 91.4344C70.0698 93.5371 66.8158 93.7686 65.6143 93.7185C69.8821 95.3518 72.8232 92.3293 72.8232 92.3293L72.1223 91.4344Z" fill="#F28F8F"/>
<path d="M67.772 102.128L69.7119 103.812C69.7119 103.812 72.3527 103.605 74.449 101.083C76.6017 98.505 76.4327 96.6214 76.4327 96.6214L74.1862 94.0807L67.772 102.128Z" fill="#F0F0F0"/>
<path d="M82.2901 62.1519C77.3527 63.2345 76.4328 63.8916 72.9097 68.829C69.3803 73.7726 63.4229 83.1968 61.871 85.6311C60.319 88.0654 58.0099 92.2769 59.3491 94.3857C60.6882 96.4946 68.0286 102.684 68.0286 102.684C68.0286 102.684 70.5129 102.565 72.9347 100.068C75.4503 97.4771 75.2501 94.83 75.2501 94.83L72.528 91.4133C72.528 91.4133 80.1437 81.6011 81.5204 79.7863C82.8971 77.9716 85.9446 71.8515 82.2901 62.1394V62.1519Z" fill="#FF2C91"/>
<path opacity="0.15" d="M72.5224 91.4235C71.5337 90.3096 69.1245 88.5011 67.3535 88.1945C69.1996 87.8691 71.9655 89.1957 73.2609 90.416L72.5224 91.4298V91.4235Z" fill="black"/>
</g>
<defs>
<clipPath id="clip0_6558_23879">
<rect width="287.62" height="290.449" fill="white" transform="translate(0.380859 0.28125)"/>
</clipPath>
</defs>
</svg>
